<?xml version="1.0" standalone="no"?>
<!DOCTYPE svg PUBLIC "-//W3C//DTD SVG 1.1//EN" "http://www.w3.org/Graphics/SVG/1.1/DTD/svg11.dtd" >
<svg>
<metadata>
Created by FontForge 20090622 at Wed Oct  9 15:18:10 2019
 By deploy user
Copyright &#194;&#169; 1991, 1998, 2002 Adobe Systems Incorporated.  All Rights Reserved.  &#194;&#169; Copyright 1991, 1998, 2002 The Monotype Corporation PLC. All Rights Reserved.
</metadata>
<defs>
<font id="AlbertusMTStd" horiz-adv-x="333" >
  <font-face 
    font-family="Albertus MT Std"
    font-weight="400"
    font-stretch="normal"
    units-per-em="1000"
    panose-1="2 14 5 2 3 2 1 2 3 3"
    ascent="754"
    descent="-246"
    x-height="524"
    cap-height="750"
    bbox="-189 -250 1216 946"
    underline-thickness="50"
    underline-position="-50"
    unicode-range="U+0020-U+FB02"
  />
<missing-glyph horiz-adv-x="500" 
d="M0 0v700h500v-700h-500zM250 395l170 255h-340zM280 350l170 -255v510zM80 50h340l-170 255zM50 605v-510l170 255z" />
    <glyph glyph-name="f_i" unicode="fi" horiz-adv-x="542" 
d="M329 753l-12 -103q-42 26 -64 26q-20 0 -38.5 -14t-22.5 -50q-2 -17 -2 -98h127v-64h-127v-320q0 -68 32 -127h-163q21 44 26.5 72.5t5.5 83.5v291h-52q43 58 52 71q-2 21 0 47t4.5 52t15.5 51t31.5 44t52.5 30.5t80 11.5q24 0 54 -4zM345 514h162q-37 -61 -37 -144v-236
q0 -36 6.5 -64t12.5 -39.5t18 -30.5l-171 3q34 54 34 145v239q0 47 -4 70t-21 57zM432 725q29 0 49.5 -20.5t20.5 -49.5q0 -30 -20.5 -50.5t-49.5 -20.5t-50 20.5t-21 50.5q0 29 21 49.5t50 20.5z" />
    <glyph glyph-name="f_l" unicode="fl" horiz-adv-x="542" 
d="M329 515v-66h-143v-319q0 -78 33 -130l-165 2q10 16 16 29t11.5 44.5t5.5 75.5v298l-52 2l52 72q1 23 0 53t7.5 62t23 58.5t47.5 43.5t79 17q30 0 74 -11l5 -105q-39 35 -76 35q-14 0 -31 -10.5t-24 -31.5q-6 -18 -6 -63v-56h143zM365 727l126 19q-24 -110 -24 -170v-431
q0 -84 36 -145h-170q24 37 29.5 71.5t5.5 94.5v491z" />
    <glyph glyph-name=".notdef" horiz-adv-x="500" 
d="M0 0v700h500v-700h-500zM250 395l170 255h-340zM280 350l170 -255v510zM80 50h340l-170 255zM50 605v-510l170 255z" />
    <glyph glyph-name=".null" horiz-adv-x="0" 
 />
    <glyph glyph-name="nonmarkingreturn" 
 />
    <glyph glyph-name="space" unicode=" " 
 />
    <glyph glyph-name="exclam" unicode="!" horiz-adv-x="219" 
d="M13 750h189q-13 -17 -20.5 -31t-16 -52.5t-8.5 -90.5v-207q1 -31 -1 -47.5t-12 -45.5t-33 -71h-11q-28 55 -36 80.5t-8 69.5v206q0 59 -7 98t-14 54t-22 37zM104 153q32 0 55.5 -23t23.5 -56t-23 -56t-56 -23t-56 23t-23 56t23.5 56t55.5 23z" />
    <glyph glyph-name="quotedbl" unicode="&#x22;" horiz-adv-x="354" 
d="M70 503l-24 136v118h100v-118l-22 -136h-54zM232 503l-24 136v118h100v-118l-23 -136h-53z" />
    <glyph glyph-name="numbersign" unicode="#" horiz-adv-x="667" 
d="M551 307v-67h-100l-30 -214h-72l30 214h-119l-30 -214h-72l30 214h-100v67h109l20 138h-100v67h109l29 214h73l-30 -214h119l29 214h73l-30 -214h91v-67h-100l-20 -138h91zM408 445h-119l-20 -138h119z" />
    <glyph glyph-name="dollar" unicode="$" horiz-adv-x="500" 
d="M209 755h78v-44q89 -8 136 -7v-156q-37 36 -66.5 51.5t-69.5 19.5v-202q186 -78 186 -215q0 -107 -76 -165q-36 -28 -110 -41v-118h-78v118q-82 3 -160 20v158q45 -45 77 -62.5t83 -23.5v228q-36 16 -54.5 25t-47 28t-42.5 37.5t-25.5 48.5t-11.5 66q0 49 19.5 90.5
t48.5 64.5q36 29 113 36v43zM209 450v170q-79 -10 -79 -81q0 -26 12 -44t25.5 -25.5t41.5 -19.5zM287 280v-190q27 1 46 13t27 28.5t10.5 27.5t2.5 20q0 68 -86 101z" />
    <glyph glyph-name="percent" unicode="%" horiz-adv-x="958" 
d="M716 287q-34 0 -58.5 -28.5t-24.5 -88.5q0 -50 22.5 -80t60.5 -30q29 0 48.5 14.5t26.5 38.5t8.5 37.5t1.5 27.5q0 52 -25 80.5t-60 28.5zM716 364q78 0 127.5 -52.5t49.5 -138.5q0 -83 -48 -137.5t-128 -54.5q-77 0 -126.5 55t-49.5 137q0 83 48.5 137t126.5 54z
M657 755h65l-418 -774h-66zM240 757q78 0 127.5 -52.5t49.5 -138.5q0 -83 -48 -137.5t-128 -54.5q-77 0 -126.5 55t-49.5 137q0 83 48.5 137t126.5 54zM240 680q-34 0 -58.5 -28.5t-24.5 -88.5q0 -50 22.5 -80t60.5 -30q29 0 48.5 14.5t26.5 38.5t8.5 37t1.5 28
q0 52 -25 80.5t-60 28.5z" />
    <glyph glyph-name="ampersand" unicode="&#x26;" horiz-adv-x="844" 
d="M431 623h331v-94q-69 14 -136 13q6 -55 -2 -156t-33 -184q69 -61 110 -84.5t135 -61.5l-101 -61q-40 6 -71.5 26t-114.5 95q-35 -45 -73 -69q-86 -54 -203 -54q-101 0 -175 49.5t-74 143.5q0 117 108 178q-16 16 -25 27.5t-18.5 36.5t-9.5 55q0 69 48.5 111.5t115.5 42.5
q69 0 112.5 -44.5t43.5 -102.5q0 -62 -55 -117q91 -35 170 -97q25 116 23 266q-36 1 -106 -5v86zM239 551q-33 0 -53.5 -20t-20.5 -48q0 -30 23 -49t51 -19q29 0 52 19.5t23 50.5q0 28 -21 47t-54 19zM477 183q-57 52 -108 80t-137 56q-107 -43 -107 -122q0 -47 40.5 -78.5
t115.5 -31.5q128 0 196 96z" />
    <glyph glyph-name="quotesingle" unicode="'" horiz-adv-x="188" 
d="M66 503l-22 134v120h100v-120l-23 -134h-55z" />
    <glyph glyph-name="parenleft" unicode="(" horiz-adv-x="323" 
d="M318 750v-10q-27 -8 -42 -14t-36 -23t-37 -44q-53 -89 -53 -391q0 -99 9 -171t22 -114t36 -69.5t43.5 -39t52.5 -20.5v-8q-32 -9 -70 -9q-29 0 -48.5 2.5t-44.5 12t-42 27.5t-34.5 51t-28 79.5t-17 116t-6.5 157.5q0 124 11 212t28 138t45.5 78.5t57 36.5t69.5 8
q39 0 85 -6z" />
    <glyph glyph-name="parenright" unicode=")" horiz-adv-x="323" 
d="M5 -157v10q27 8 42 14t36 23t37 44q53 89 53 391q0 99 -8.5 171t-22 114t-36.5 69.5t-43.5 38.5t-52.5 20v8q30 10 70 10q29 0 48.5 -2.5t44.5 -12t42 -27.5t34.5 -51t28 -79.5t17 -116t6.5 -157.5q0 -124 -11 -212t-28 -138t-45.5 -78.5t-57 -36.5t-69.5 -8q-39 0 -85 6
z" />
    <glyph glyph-name="asterisk" unicode="*" horiz-adv-x="500" 
d="M251 227l-64 153l-164 -23l101 131l-101 131l164 -20l64 156l63 -156l164 20l-99 -131l99 -131l-164 23zM251 559q-29 0 -49.5 -20.5t-19.5 -49.5q0 -29 20 -49t49 -20t49 20.5t20 48.5q0 29 -20 49.5t-49 20.5z" />
    <glyph glyph-name="plus" unicode="+" horiz-adv-x="667" 
d="M293 294v212h82v-212h211v-82h-211v-212h-82v212h-211v82h211z" />
    <glyph glyph-name="comma" unicode="," horiz-adv-x="250" 
d="M82 199h159q-7 -42 -15 -72.5t-45.5 -104t-100.5 -157.5h-70q83 168 83 265q0 31 -11 69z" />
    <glyph glyph-name="hyphen" unicode="-" horiz-adv-x="281" 
d="M24 202v121q78 -13 124 -13q48 0 119 13v-121q-69 13 -127 13q-54 0 -116 -13z" />
    <glyph glyph-name="period" unicode="." horiz-adv-x="240" 
d="M121 154q33 0 56.5 -23.5t23.5 -56.5q0 -34 -23.5 -57.5t-56.5 -23.5t-56.5 23.5t-23.5 57.5q0 33 23.5 56.5t56.5 23.5z" />
    <glyph glyph-name="slash" unicode="/" horiz-adv-x="552" 
d="M322 758h88l-192 -764h-87z" />
    <glyph glyph-name="zero" unicode="0" horiz-adv-x="594" 
d="M15 374q0 174 79.5 279t203.5 105q119 0 200 -102.5t81 -270.5q0 -100 -29.5 -185t-95 -142.5t-157.5 -57.5q-127 0 -204.5 106t-77.5 268zM127 373q0 -77 16.5 -134.5t43.5 -87t54 -43t55 -13.5q20 0 40.5 6.5t44.5 26.5t42 50.5t30 84t12 122.5q0 141 -49.5 208
t-120.5 67q-73 0 -120.5 -70.5t-47.5 -216.5z" />
    <glyph glyph-name="one" unicode="1" horiz-adv-x="260" 
d="M0 630l168 126h17v-646q0 -71 21 -110h-166q33 57 33 153v475z" />
    <glyph glyph-name="two" unicode="2" horiz-adv-x="531" 
d="M167 478l-100 64l-2 26q0 68 56.5 128t156.5 60q94 0 150 -57.5t56 -126.5q0 -80 -78 -190l-38 -57l-172 -239h165q31 0 48 2t46.5 17.5t59.5 45.5l-14 -157q-143 8 -251 8q-90 0 -242 -8v6q46 59 162.5 220.5t137.5 194.5q38 57 53 89t15 61q0 50 -34 75t-74 25
q-44 0 -78.5 -31.5t-34.5 -87.5q0 -29 12 -68z" />
    <glyph glyph-name="three" unicode="3" horiz-adv-x="542" 
d="M41 750h495v-12l-104 -164q-27 -44 -93 -161q57 -21 88 -55q53 -56 53 -136q0 -34 -13.5 -71.5t-40 -73.5t-75.5 -59.5t-112 -23.5q-131 0 -221 77l91 128q9 -46 35.5 -76t52.5 -40t52 -10q63 0 98.5 41.5t35.5 92.5q0 39 -24 74.5t-60 52.5q-37 17 -110 21l99 151
q10 15 85 152q-50 10 -122 10q-71 0 -114.5 -10t-60 -22.5t-38.5 -37.5z" />
    <glyph glyph-name="four" unicode="4" horiz-adv-x="573" 
d="M324 756h109v-398h39q55 0 90 20v-121q-47 19 -102 19h-27v-98q3 -68 7.5 -101.5t19.5 -76.5h-161q25 93 25 186v90h-308v82q49 41 106 119l154 211zM132 358h195v268z" />
    <glyph glyph-name="five" unicode="5" horiz-adv-x="510" 
d="M75 752l430 -2l-48 -101q-43 20 -66.5 25.5t-74.5 5.5h-120v-244q32 4 52 4q81 0 146.5 -58.5t65.5 -153.5q0 -99 -71.5 -166.5t-177.5 -67.5q-102 0 -205 70l61 108q23 -28 36.5 -42t43 -29.5t62.5 -15.5q56 0 93 40.5t37 96.5q0 63 -42 104t-104 41q-40 0 -103 -27v316
q0 57 -15 96z" />
    <glyph glyph-name="six" unicode="6" horiz-adv-x="500" 
d="M277 750h177q-68 -70 -120 -157l-97 -162q18 3 41 3q84 0 146 -61t62 -155t-66 -159.5t-170 -65.5q-98 0 -162.5 59t-64.5 154q0 76 72 200l110 188l39 72q30 55 33 84zM256 341q-50 0 -88.5 -36t-38.5 -92q0 -55 37.5 -91.5t92.5 -36.5q58 0 92.5 39.5t34.5 87.5
q0 55 -38.5 92t-91.5 37z" />
    <glyph glyph-name="seven" unicode="7" horiz-adv-x="510" 
d="M175 0h-147q45 67 87 160l221 503h-161q-53 0 -79.5 -9t-78.5 -41v92q0 19 -7 51q17 -2 53 -4q38 -2 62 -2h379l-43 -87l-255 -549q-31 -70 -31 -114z" />
    <glyph glyph-name="eight" unicode="8" horiz-adv-x="500" 
d="M372 398q112 -63 112 -179q0 -92 -70 -159.5t-164 -67.5q-93 0 -163.5 67.5t-70.5 159.5q0 117 112 179q-18 14 -29 25t-27.5 31t-25 46t-8.5 57q0 82 59 141t153 59t153 -59t59 -141q0 -31 -8.5 -56.5t-25.5 -46.5t-27 -31t-29 -25zM249 668q-49 0 -84 -34.5t-35 -84.5
t35 -84.5t84 -34.5t84 35t35 84q0 50 -35 84.5t-84 34.5zM250 344h-1q-52 0 -89 -37t-37 -89t37 -89t90 -37q52 0 89 37t37 89t-37 89t-89 37z" />
    <glyph glyph-name="nine" unicode="9" horiz-adv-x="500" 
d="M238 0h-171q53 58 104 145l105 175q-20 -2 -38 -2q-83 0 -149.5 56.5t-66.5 157.5q0 91 61.5 157t178.5 66q107 0 166 -63t59 -150q0 -60 -57 -165l-177 -325q-15 -29 -15 -52zM251 668q-53 0 -91 -37.5t-38 -91.5q0 -53 37.5 -91t91.5 -38q53 0 90.5 38t37.5 91
q0 54 -37.5 91.5t-90.5 37.5z" />
    <glyph glyph-name="colon" unicode=":" horiz-adv-x="240" 
d="M121 154q33 0 56.5 -23.5t23.5 -56.5q0 -34 -23.5 -57.5t-56.5 -23.5t-56.5 23.5t-23.5 57.5q0 33 23.5 56.5t56.5 23.5zM121 525q33 0 56.5 -23.5t23.5 -56.5q0 -34 -23.5 -57.5t-56.5 -23.5t-56.5 23.5t-23.5 57.5q0 33 23.5 56.5t56.5 23.5z" />
    <glyph glyph-name="semicolon" unicode=";" horiz-adv-x="250" 
d="M83 200l159 -1q-8 -43 -16 -72.5t-45.5 -103.5t-100.5 -158h-70q83 168 83 265q0 33 -10 70zM150 525q33 0 57 -23.5t24 -56.5q0 -34 -24 -57.5t-57 -23.5t-56.5 23.5t-23.5 57.5q0 33 23.5 56.5t56.5 23.5z" />
    <glyph glyph-name="less" unicode="&#x3c;" horiz-adv-x="667" 
d="M588 74v-82l-508 225v72l508 225v-82l-404 -179z" />
    <glyph glyph-name="equal" unicode="=" horiz-adv-x="667" 
d="M586 395v-82h-504v82h504zM586 193v-82h-504v82h504z" />
    <glyph glyph-name="greater" unicode="&#x3e;" horiz-adv-x="667" 
d="M80 74l404 179l-404 179v82l508 -225v-72l-508 -225v82z" />
    <glyph glyph-name="question" unicode="?" horiz-adv-x="427" 
d="M39 624l7 110q53 22 113 22q84 0 143.5 -35t85.5 -86t26 -110q0 -45 -13.5 -83t-29.5 -60.5t-43.5 -42.5t-40.5 -26.5t-35 -16.5q-72 -31 -90.5 -44t-34.5 -43h-11q-5 45 -5 95q0 23 9 33.5t28 16.5q26 8 39.5 13.5t39 19.5t39 30t25 43.5t11.5 61.5q0 66 -44 106.5
t-102 40.5q-26 0 -50.5 -8t-36 -15.5t-30.5 -21.5zM130 149q33 0 56 -23.5t23 -55.5q0 -33 -23 -56.5t-56 -23.5t-56 23.5t-23 55.5q0 33 23 56.5t56 23.5z" />
    <glyph glyph-name="at" unicode="@" horiz-adv-x="1010" 
d="M755 94l13 -36q-121 -64 -230 -64q-83 0 -154 23.5t-118.5 62t-81 87t-49 97.5t-15.5 96q0 175 119 286.5t286 111.5q155 0 260 -93t105 -233q0 -59 -23 -118t-71.5 -102.5t-111.5 -43.5q-34 0 -58.5 17t-33.5 34t-8 27h-2q-13 -22 -49 -50t-77 -28q-16 0 -32.5 5.5
t-34.5 18.5t-29.5 42t-11.5 71q0 34 14 78t39.5 87.5t69 73t95.5 29.5q56 0 78 -55l10 41h80l-69 -277q-9 -14 -1.5 -43t37.5 -29q56 0 95.5 68.5t39.5 153.5q0 106 -87.5 196t-223.5 90q-130 0 -221 -99.5t-91 -270.5q0 -126 95.5 -217.5t227.5 -91.5q68 0 115 13.5
t104 41.5zM578 521q-46 0 -94.5 -59.5t-48.5 -145.5q0 -46 17.5 -69.5t45.5 -23.5q39 0 76.5 60t47.5 166q0 72 -44 72z" />
    <glyph glyph-name="A" unicode="A" horiz-adv-x="792" 
d="M415 753l254 -548q55 -118 117 -203l-178 -2q0 62 -31 132l-44 101h-263l-38 -81q-42 -91 -38 -152h-183q45 52 109 179l289 574h6zM407 522l-95 -201h182z" />
    <glyph glyph-name="B" unicode="B" horiz-adv-x="510" 
d="M57 750h168q66 0 115.5 -19t75 -49t37 -59.5t11.5 -58.5q0 -31 -9 -57.5t-27.5 -47.5t-30 -31t-33.5 -26q60 -36 97.5 -86t37.5 -109t-40 -111t-88 -69q-79 -28 -147 -27l-170 2q29 90 29 214v337q0 132 -26 197zM194 686v-280q147 38 147 152q0 60 -40.5 91t-106.5 37z
M194 392v-325q49 -1 85 12t53 30t27.5 40.5t12 37t1.5 25.5q0 24 -7.5 47.5t-26 49.5t-55.5 48t-90 35z" />
    <glyph glyph-name="C" unicode="C" horiz-adv-x="656" 
d="M630 728v-120q-103 54 -195 54q-125 0 -204.5 -82.5t-79.5 -208.5q0 -120 74.5 -202.5t201.5 -82.5q53 0 101 15.5t68.5 29t51.5 36.5l-6 -116q-114 -57 -234 -57q-83 0 -150.5 25t-108 64t-68.5 89.5t-38.5 96.5t-10.5 90q0 75 31 146.5t86 127.5t138.5 90t181.5 34
q78 0 161 -29z" />
    <glyph glyph-name="D" unicode="D" horiz-adv-x="635" 
d="M81 228v317q0 25 -2 49.5t-4 41t-6 37t-6 29.5t-6.5 26t-5.5 19q52 4 78 4q62 0 109.5 -5t106.5 -19.5t110 -48.5t92 -86q75 -97 75 -224q0 -152 -107.5 -260t-282.5 -108h-181q10 30 15.5 50.5t10 66.5t4.5 111zM193 544v-298q0 -113 6 -173q79 8 138.5 39.5t91 77.5
t46.5 93t15 95q0 35 -7 69t-27 73t-51.5 70.5t-84.5 56.5t-121 34q-6 -46 -6 -137z" />
    <glyph glyph-name="E" unicode="E" horiz-adv-x="510" 
d="M55 750h404l-57 -116q-63 29 -105.5 38t-101.5 7v-262h235l-64 -105q-95 28 -171 33v-274q59 0 89.5 2t86.5 14t132 38l-55 -125h-393q28 95 28 193v367q0 103 -28 190z" />
    <glyph glyph-name="F" unicode="F" horiz-adv-x="469" 
d="M52 750h411l-61 -110q-58 23 -96 29.5t-117 8.5v-266h248l-57 -108q-83 35 -191 34v-168q0 -92 23 -170h-160q25 98 25 210v352q0 105 -25 188z" />
    <glyph glyph-name="G" unicode="G" horiz-adv-x="750" 
d="M649 733v-125q-131 68 -238 68q-49 0 -96 -18t-86.5 -53t-63.5 -93t-24 -130q0 -127 81.5 -211.5t222.5 -84.5q67 0 132 26v83q0 55 -7.5 92t-16 52.5t-26.5 39.5h183q-21 -60 -21 -130v-89q0 -65 14 -116q-125 -49 -263 -49q-97 0 -172 24.5t-119.5 62t-73.5 88
t-39 96.5t-10 93q0 154 94 266q60 72 137 102.5t197 30.5q90 0 195 -25z" />
    <glyph glyph-name="H" unicode="H" horiz-adv-x="719" 
d="M60 752h172q-30 -81 -30 -172v-152h321v133q0 102 -29 191h171q-11 -31 -16 -49.5t-9 -57.5t-4 -93v-347q0 -58 4.5 -99.5t9.5 -59.5t15 -46h-171q11 31 15.5 47.5t9 57t4.5 96.5v132h-321v-124q0 -114 28 -209h-170q29 78 29 193v366q0 111 -29 193z" />
    <glyph glyph-name="I" unicode="I" horiz-adv-x="281" 
d="M59 750h169q-28 -88 -28 -198v-345q0 -106 28 -207h-169q10 31 15 50t9.5 63t4.5 102v357q0 108 -29 178z" />
    <glyph glyph-name="J" unicode="J" horiz-adv-x="385" 
d="M25 651l31 99h259q-23 -65 -21 -248l2 -230q0 -227 -32 -306q-17 -41 -46.5 -69t-61 -39t-49.5 -14.5t-30 -3.5q-13 0 -63 10q30 16 49.5 29t41.5 34.5t35 49.5t24.5 69t16.5 98t4 131l-2 211q0 136 2 189l-47 2q-42 1 -113 -12z" />
    <glyph glyph-name="K" unicode="K" horiz-adv-x="677" 
d="M61 748l169 2q-11 -32 -16 -49t-9.5 -52.5t-4.5 -84.5v-147l193 235q23 27 35.5 46t15.5 28t7 24h190q-90 -66 -177 -172l-135 -161l255 -321q40 -50 85 -95l-183 -1q-20 72 -81 146l-205 258v-216q0 -96 26 -188h-169q30 91 30 197v391q0 82 -26 160z" />
    <glyph glyph-name="L" unicode="L" horiz-adv-x="500" 
d="M493 141l-62 -141h-366q12 30 17 49t9 66.5t4 125.5v331q0 106 -26 177h168q-10 -25 -14.5 -41t-9.5 -53.5t-5 -89.5l-4 -489q163 15 289 65z" />
    <glyph glyph-name="M" unicode="M" horiz-adv-x="885" 
d="M2 750h170q21 -50 65 -104l205 -255l224 277q32 40 54 79h147q-21 -25 -30.5 -40t-19.5 -52t-10 -88v-369q0 -123 34 -198h-180q33 74 33 186v356l-252 -314l-254 314v-375q0 -95 32 -167h-178q34 79 34 200v468z" />
    <glyph glyph-name="N" unicode="N" horiz-adv-x="792" 
d="M9 750h179q9 -21 14.5 -32t21.5 -35t44 -60l339 -430v341q0 141 -21 216h144q-19 -76 -19 -160v-403q0 -117 25 -187h-139q-15 46 -64 108l-319 408v-296q0 -140 30 -220h-159q25 81 25 198v451q-42 54 -101 101z" />
    <glyph glyph-name="O" unicode="O" horiz-adv-x="844" 
d="M35 383q0 51 17.5 103t52.5 100.5t83 86.5t115 60.5t143 22.5q90 0 162.5 -32t117.5 -86t69 -120.5t24 -139.5q0 -171 -114 -277t-278 -106q-116 0 -207.5 57.5t-138 145t-46.5 185.5zM161 400q0 -97 45 -173t112 -113.5t140 -37.5q60 0 108.5 26t77 67.5t44 88
t15.5 92.5q0 79 -36 153t-105 123.5t-153 49.5q-110 0 -179 -81.5t-69 -194.5z" />
    <glyph glyph-name="P" unicode="P" horiz-adv-x="490" 
d="M94 245v304q0 133 -29 201h163q114 0 183.5 -57.5t69.5 -152.5q0 -47 -16.5 -85t-42.5 -61t-59.5 -38t-65.5 -20t-62 -3l-29 2v-123q0 -92 29 -212h-175q34 126 34 245zM206 616v-246q21 3 35.5 6.5t39.5 15.5t41 27.5t28.5 45.5t12.5 68q0 75 -48 124q-34 35 -105 43
q-4 -50 -4 -84z" />
    <glyph glyph-name="Q" unicode="Q" horiz-adv-x="885" 
d="M844 -141v-11q-47 -7 -73 -7q-52 0 -102.5 31t-152.5 128q-2 0 -13.5 -1.5l-19.5 -2.5q-5 0 -19 -0.5t-23 -0.5q-157 0 -271 114.5t-114 266.5q0 159 120 270t293 111q168 0 269.5 -108.5t101.5 -270.5q0 -128 -71 -226q-37 -53 -102 -97q48 -67 88.5 -113.5t88.5 -82.5z
M247 592q-66 -84 -66 -199q0 -126 86.5 -221t210.5 -95q61 0 110 26.5t77.5 68.5t43 87.5t14.5 87.5q0 130 -84 229.5t-203 99.5q-48 0 -100.5 -19t-88.5 -65z" />
    <glyph glyph-name="R" unicode="R" horiz-adv-x="615" 
d="M88 194v399q0 90 -20 155l146 2q135 2 209.5 -63.5t74.5 -150.5q0 -125 -142 -200q31 -55 77 -119t79 -105l92 -112h-103q-75 65 -129.5 128t-172.5 219v-185q0 -78 21 -162h-152q20 92 20 194zM199 686v-328l47.5 14.5t47.5 20t46.5 30t30 42.5t13.5 60q0 24 -8.5 47.5
t-27.5 48t-57.5 42.5t-91.5 23z" />
    <glyph glyph-name="S" unicode="S" horiz-adv-x="448" 
d="M399 722v-116q-23 18 -37.5 28t-44 20.5t-60.5 10.5q-49 0 -82.5 -28.5t-33.5 -72.5q0 -26 10 -47t35 -41.5t46.5 -34.5t65.5 -39q77 -44 107.5 -90t30.5 -103q0 -94 -69 -154t-185 -60q-59 0 -129 20v159q18 -21 28.5 -31.5t30.5 -27.5t42 -24.5t46 -7.5q47 0 79.5 32
t32.5 73q0 59 -63 99l-73.5 46.5t-54.5 38t-45 38t-27.5 36.5t-19 44t-4.5 51q0 89 65 153t157 64q66 0 152 -36z" />
    <glyph glyph-name="T" unicode="T" horiz-adv-x="625" 
d="M60 749h558l-52 -115q-63 25 -97.5 32.5t-98.5 7.5v-495q0 -103 21 -179h-153q21 90 21 191v483q-32 1 -53 -1t-69.5 -14t-116.5 -36z" />
    <glyph glyph-name="U" unicode="U" horiz-adv-x="750" 
d="M51 750h160q-14 -40 -19 -73.5t-5 -106.5v-273q0 -65 15 -103q25 -61 75.5 -89.5t96.5 -28.5q59 0 107.5 38.5t64.5 92.5q6 23 6 75v296q0 115 -27 172h160q-20 -53 -20 -153v-400q0 -96 20 -197h-133q6 52 5 74q-132 -81 -238 -81q-114 0 -179 79t-65 210v296
q0 54 -4 89t-7.5 48.5t-12.5 34.5z" />
    <glyph glyph-name="V" unicode="V" horiz-adv-x="760" 
d="M5 750h189q-7 -26 -7 -40q0 -47 32 -132l156 -397l161 384q36 88 36 136q0 19 -9 49l195 -3q-55 -64 -99 -169l-245 -583h-85l-211 542q-23 60 -58 129q-25 50 -55 84z" />
    <glyph glyph-name="W" unicode="W" horiz-adv-x="927" 
d="M22 748l151 2q-4 -28 -4 -41q0 -37 30 -151l90 -344l182 533h7l178 -533l97 360q25 98 25 137l-2 36l146 -2q-25 -56 -42 -121l-171 -631h-89l-147 439l-148 -439h-90l-148 562q-26 109 -65 193z" />
    <glyph glyph-name="X" unicode="X" horiz-adv-x="667" 
d="M28 750h171q14 -60 57 -132l80 -134l73 120q52 81 62 146h169q-111 -155 -148 -217l-92 -153l95 -161q87 -143 164 -219h-196q1 59 -47 139l-80 134l-106 -174q-32 -53 -36 -99l-173 2q82 90 143 197l110 181l-107 176q-60 100 -139 194z" />
    <glyph glyph-name="Y" unicode="Y" horiz-adv-x="625" 
d="M24 748l171 2q-4 -45 33 -111l105 -185l102 181q24 41 32 64.5t7 50.5l151 -1q-14 -18 -56 -84l-180 -316v-260q0 -50 20 -89h-152q20 51 20 128v212l-168 299q-26 48 -42.5 68.5t-42.5 40.5z" />
    <glyph glyph-name="Z" unicode="Z" horiz-adv-x="573" 
d="M75 750h448l-88 -175l-235 -497q27 -3 60 -3q85 0 152.5 12t92.5 22t59 28l-54 -137h-493q175 319 337 670q-24 4 -68 4q-128 0 -259 -64z" />
    <glyph glyph-name="bracketleft" unicode="[" horiz-adv-x="281" 
d="M79 750h191v-69l-91 2v-772q64 1 91 3v-69h-191v905z" />
    <glyph glyph-name="backslash" unicode="\" horiz-adv-x="552" 
d="M126 758h88l191 -764h-87z" />
    <glyph glyph-name="bracketright" unicode="]" horiz-adv-x="281" 
d="M202 750v-905h-191v70l91 -4v772l-91 -2v69h191z" />
    <glyph glyph-name="asciicircum" unicode="^" horiz-adv-x="575" 
d="M249 752h76l224 -454h-84l-178 368l-176 -368h-85z" />
    <glyph glyph-name="underscore" unicode="_" horiz-adv-x="500" 
d="M500 -125h-500v50h500v-50z" />
    <glyph glyph-name="grave" unicode="`" 
d="M220 580h-31q-83 63 -116 167h96q7 -80 51 -167z" />
    <glyph glyph-name="a" unicode="a" horiz-adv-x="458" 
d="M75 412l28 92l66 14q18 4 46 4q44 0 79 -16t48.5 -30t21.5 -28q15 -27 15 -76l4 -299q0 -14 19 -73h-118v73q-40 -30 -86 -68q-30 -5 -42 -5q-24 0 -53 11.5t-54 41t-25 68.5q0 95 184 168q49 19 76 38v27q0 30 -6 42q-11 20 -40 35t-64 15q-42 0 -99 -34zM284 82v147
h-134q-19 -45 -19 -79q0 -77 99 -77q23 0 54 9z" />
    <glyph glyph-name="b" unicode="b" horiz-adv-x="542" 
d="M65 726l139 27q-1 -6 -7.5 -51.5t-7.5 -54.5q-4 -37 -4 -99v-139l76 87q48 23 77 23q24 0 50.5 -9t56.5 -30.5t49.5 -67t19.5 -108.5q0 -200 -177 -277q-40 -17 -73 -22t-100 -5l-102 3q16 49 21 83t5 98v364q0 70 -3.5 102.5t-19.5 75.5zM185 400v-323q1 0 37 -4t44 -4
t18 1t33.5 11t41 27.5t32 55.5t14.5 90q0 90 -38 129q-38 43 -96 43q-38 0 -86 -26z" />
    <glyph glyph-name="c" unicode="c" horiz-adv-x="427" 
d="M413 513l-9 -110q-16 16 -26.5 25t-34 18.5t-51.5 9.5q-41 0 -71.5 -17t-46.5 -45.5t-23.5 -58t-7.5 -61.5q0 -54 16 -94.5t42 -61t52.5 -30t54.5 -9.5q45 0 112 20l-54 -84q-45 -13 -85 -13q-104 0 -173.5 70t-69.5 176q0 27 5 57t22.5 70.5t46 72t80.5 53.5t120 22
q47 0 101 -10z" />
    <glyph glyph-name="d" unicode="d" horiz-adv-x="542" 
d="M350 726l139 28q-18 -79 -18 -160v-507q0 -34 18 -87h-117v87q-26 -29 -41 -43t-46 -29t-66 -15q-79 0 -138 62.5t-59 159.5q0 113 84.5 201.5t194.5 88.5q33 0 71 -11v93q0 70 -22 132zM372 99v311q-42 40 -97 40q-44 0 -99 -33q-43 -74 -43 -153q0 -51 17 -88.5
t38.5 -55.5t50 -29t43 -12.5t26.5 -1.5q35 0 64 22z" />
    <glyph glyph-name="e" unicode="e" horiz-adv-x="448" 
d="M410 127l-49 -104q-67 -23 -116 -23q-60 0 -103 22.5t-65 60.5t-31.5 80t-9.5 90q0 128 57.5 199t152.5 71q66 0 112 -39.5t57 -112.5q6 -36 6 -121l-276 -6q13 -158 128 -158q47 0 137 41zM142 311h214q2 72 -24 110.5t-80 38.5q-53 0 -78.5 -38.5t-31.5 -110.5z" />
    <glyph glyph-name="f" unicode="f" horiz-adv-x="323" 
d="M304 514v-69h-114v-318q0 -73 28 -125l-160 -2q29 53 29 135v310l-52 2q29 37 52 74v31q0 18 0.5 29.5t3.5 35t9 40t19 37t30.5 33t46 21.5t63.5 9q37 0 95 -13q-14 -68 -20 -112q-24 51 -76 51q-68 0 -68 -103v-66h114z" />
    <glyph glyph-name="g" unicode="g" horiz-adv-x="490" 
d="M482 499v-70h-94q30 -58 30 -99q0 -68 -54.5 -109t-147.5 -41q-23 0 -57 4q-23 -31 -23 -46q0 -18 10 -27q7 -7 91 -7q91 0 116.5 -2t44.5 -13q49 -27 49 -88q0 -79 -92 -135q-31 -18 -64.5 -23t-87.5 -5h-104l-57 33q-18 10 -18 30v42q33 20 53 35t29 23.5t24 26.5
q-35 7 -53 11.5t-35.5 17.5t-17.5 33q0 29 65 60q23 10 54 37q-50 14 -80 51.5t-30 91.5q0 48 15 85t37.5 57.5t51.5 34t53 18t47 4.5q56 0 103 -30h142zM242 234l22 1q17 12 26.5 20t20.5 29t11 46q0 51 -31 96t-76 45q-36 0 -59.5 -28t-23.5 -78q0 -56 29 -94.5t81 -36.5z
M261 29l-115 -3q-23 -30 -23 -55q0 -8 3 -16t11 -18.5t27.5 -17.5t47.5 -7q133 0 133 67q0 17 -7.5 27.5t-21.5 15t-26 6t-29 1.5z" />
    <glyph glyph-name="h" unicode="h" horiz-adv-x="542" 
d="M62 727l140 27q-20 -131 -20 -203v-143l54 62q13 15 22 23t31 17t50 9q35 0 67 -19.5t45 -51.5q17 -36 15 -127v-204q0 -66 11 -118h-122q15 55 15 110v197q0 62 -15 84q-14 19 -37.5 28.5t-43.5 9.5q-40 0 -92 -31v-221q0 -56 2.5 -90.5t5 -47.5t9.5 -38h-143
q10 25 15 41t10 52.5t5 88.5v380q0 58 -5 90t-19 75z" />
    <glyph glyph-name="i" unicode="i" horiz-adv-x="260" 
d="M49 525h152q-9 -17 -13 -27t-8 -37.5t-4 -66.5v-249q0 -96 30 -145h-161q19 29 25 54t6 97v242q0 48 -5.5 74t-21.5 58zM126 747q32 0 52.5 -24t20.5 -53q0 -26 -18.5 -50.5t-52.5 -24.5q-30 0 -50.5 21.5t-20.5 55.5q0 36 21.5 55.5t47.5 19.5z" />
    <glyph glyph-name="j" unicode="j" horiz-adv-x="260" 
d="M48 525h171q-35 -61 -35 -112v-368q0 -109 -80 -206h-92q43 52 58 91t15 115v355q0 41 -5.5 62t-31.5 63zM132 745q30 0 52 -21.5t22 -52.5t-21.5 -52.5t-52.5 -21.5t-52.5 21.5t-21.5 52.5t21.5 52.5t52.5 21.5z" />
    <glyph glyph-name="k" unicode="k" horiz-adv-x="510" 
d="M65 734l137 27q-20 -82 -20 -167v-309l131 171q26 34 30 69h151q-58 -53 -75.5 -70.5t-45.5 -54.5l-79 -102l92 -155q51 -86 108 -143h-161q-6 45 -35 93l-116 191v-165q0 -80 20 -119h-144q16 30 21 59t5 84v474q0 48 -19 117z" />
    <glyph glyph-name="l" unicode="l" horiz-adv-x="260" 
d="M62 727l139 28q-18 -91 -18 -170v-430q0 -55 5.5 -82t26.5 -73h-170q38 69 38 119l1 491q0 49 -22 117z" />
    <glyph glyph-name="m" unicode="m" horiz-adv-x="802" 
d="M61 525h120v-115q2 3 12.5 20l19.5 32.5t13 19.5q37 45 99 45q101 0 126 -117q39 72 40 73q35 44 101 44q80 0 113 -65q14 -26 14 -80v-304q0 -44 16 -78h-130q11 23 13 34.5t2 43.5v297q0 32 -24.5 53.5t-55.5 21.5q-21 0 -40.5 -10.5t-27.5 -19t-21 -24.5v-310
q0 -50 18 -86h-139q12 20 16 35.5t4 50.5v259q0 53 -13 71q-24 34 -60 34q-26 0 -47 -13t-49 -40v-310q0 -21 1 -31t5.5 -24.5t15.5 -31.5h-142q21 43 21 83v336q0 56 -21 106z" />
    <glyph glyph-name="n" unicode="n" horiz-adv-x="552" 
d="M182 423l75 82q46 24 80 24q44 0 88 -35.5t44 -101.5v-302q0 -46 19 -90h-134q16 42 16 87v289q0 21 -22.5 44.5t-72.5 23.5q-23 0 -41.5 -5t-27 -9.5t-24.5 -15.5v-298q0 -59 9 -116h-133q26 59 26 160v281q0 14 -14 84h113z" />
    <glyph glyph-name="o" unicode="o" horiz-adv-x="542" 
d="M259 530q109 4 182 -66t73 -185q0 -65 -20.5 -117t-50.5 -83t-66.5 -51.5t-66 -28t-51.5 -7.5q-41 0 -80 14t-74.5 42t-57 78t-21.5 115q0 62 17 111t39 77t59.5 51t59 31t58.5 19zM329 67q24 19 40.5 37t33.5 60t17 94q0 81 -46 141t-114 60q-53 0 -90 -48t-37 -128
q0 -107 59 -164.5t137 -51.5z" />
    <glyph glyph-name="p" unicode="p" horiz-adv-x="542" 
d="M55 525h135q-4 -64 -4 -107q26 38 42.5 57t44.5 36t60 17q77 0 129.5 -66.5t52.5 -180.5q0 -124 -59.5 -193.5t-131.5 -69.5q-63 0 -138 64v-98q0 -55 5.5 -81.5t24.5 -61.5h-161q18 31 24 53.5t6 77.5v394q0 101 -30 159zM186 408v-292q44 -21 81 -21q24 0 47 8.5
t46 27.5t36.5 57.5t13.5 91.5q0 50 -15 85.5t-38.5 51t-42.5 22t-36 6.5q-43 0 -92 -37z" />
    <glyph glyph-name="q" unicode="q" horiz-adv-x="542" 
d="M483 -163h-151q11 23 16 35.5t9 36t4 56.5v144l-67 -71q-59 -26 -88 -26q-66 0 -119 54t-53 161q0 141 89.5 222.5t243.5 81.5q41 0 106 -7q-13 -53 -13 -118v-441q0 -46 3.5 -65t19.5 -63zM361 118v333q-44 10 -73 10q-61 0 -103.5 -49.5t-42.5 -143.5q0 -68 33 -115.5
t106 -47.5q32 0 80 13z" />
    <glyph glyph-name="r" unicode="r" horiz-adv-x="406" 
d="M69 524h123q-5 -27 -5 -72v-64q13 26 19.5 38t22.5 34t29.5 32.5t35 19.5t46.5 9q22 0 48 -13l-17 -126q-17 15 -25 21.5t-22 11.5t-33 5q-56 0 -104 -46v-251q0 -53 5.5 -75.5t20.5 -47.5h-153q16 25 21 44t5 56v333q0 41 -17 91z" />
    <glyph glyph-name="s" unicode="s" horiz-adv-x="344" 
d="M315 501v-83q-17 15 -26 21.5t-29.5 15.5t-41.5 9q-34 0 -55 -20.5t-21 -49.5q0 -28 16.5 -45t72.5 -54q46 -30 68 -62t22 -83q0 -69 -44.5 -110t-126.5 -41q-62 0 -126 19l7 135q39 -55 62 -76t53 -21q38 0 57.5 21.5t19.5 49.5q0 31 -17.5 49t-65.5 49
q-100 65 -100 151q0 53 45 100t130 47q42 0 100 -22z" />
    <glyph glyph-name="t" unicode="t" 
d="M187 512h133v-66h-133v-188q0 -131 5 -145q5 -15 24 -29t42 -14q18 0 68 11l-57 -73q-53 -11 -86 -11q-52 0 -76 28.5t-24 57.5q0 10 1.5 32.5t1.5 40.5v290h-68q12 15 169 176v-110z" />
    <glyph glyph-name="u" unicode="u" horiz-adv-x="552" 
d="M56 524h152q-11 -17 -15 -25.5t-7 -23.5t-3 -38v-288q14 -69 82 -69q46 0 98 36v285q0 76 -20 121l147 2q-26 -55 -26 -97v-304q0 -74 18 -123h-123q4 48 4 106l-79 -86q-39 -21 -75 -21q-15 0 -32.5 4.5t-47 28t-48.5 63.5l2 296q1 51 -5.5 77.5t-21.5 55.5z" />
    <glyph glyph-name="v" unicode="v" horiz-adv-x="469" 
d="M13 525h154q-5 -30 -5 -38q0 -13 18 -79l69 -252l72 244q22 76 19 125h110q-39 -55 -61 -130l-116 -395h-83l-84 308l-19.5 60.5t-21.5 64.5q-19 47 -52 92z" />
    <glyph glyph-name="w" unicode="w" horiz-adv-x="677" 
d="M18 525h151q-6 -28 -6 -46q0 -35 8 -72l48 -221l101 339h82l86 -342l59 234q10 40 10 66q0 18 -6 42h115q-31 -54 -39.5 -73.5t-15.5 -49.5l-102 -402h-76l-92 367l-106 -367h-76l-87 398q-14 63 -54 127z" />
    <glyph glyph-name="x" unicode="x" horiz-adv-x="469" 
d="M22 525h138q5 -36 26 -76l52 -98l47 82q31 52 34 92h126q-42 -42 -76 -100l-84 -144l101 -180q29 -52 72 -101h-139q-5 32 -39 93l-51 91l-46 -79q-33 -57 -37 -105h-142q72 75 105 130l77 128l-98 172q-33 57 -66 95z" />
    <glyph glyph-name="y" unicode="y" horiz-adv-x="552" 
d="M31 525h140q6 -44 22 -81l103 -250q65 178 78.5 228t13.5 103h156q-21 -31 -32.5 -50t-33.5 -69.5t-55 -139.5l-68 -183q-16 -45 -53.5 -120.5t-48.5 -83.5l-58 -41h-98l65 78q22 27 78 146l-114 281q-50 118 -95 182z" />
    <glyph glyph-name="z" unicode="z" horiz-adv-x="385" 
d="M130 215l102 238l-82 5q-68 4 -124 -35l27 101l310 -12q-22 -44 -28 -59l-125 -285q-9 -19 -39 -106h80q44 0 70.5 8.5t54.5 30.5l-30 -101h-329q55 79 113 215z" />
    <glyph glyph-name="braceleft" unicode="{" 
d="M123 -16v196q0 52 -15 78t-58 40q43 14 58 40t15 78v196q0 89 37.5 117.5t131.5 28.5v-12q-39 -12 -54.5 -42t-15.5 -86v-186q0 -60 -15 -90t-62 -43v-2q47 -13 62 -43t15 -90v-186q0 -56 15.5 -86t54.5 -42v-12q-94 0 -131.5 28.5t-37.5 117.5z" />
    <glyph glyph-name="bar" unicode="|" horiz-adv-x="542" 
d="M230 -250v1196h82v-1196h-82z" />
    <glyph glyph-name="braceright" unicode="}" 
d="M210 180v-196q0 -89 -37.5 -117.5t-131.5 -28.5v12q39 12 54.5 42t15.5 86v186q0 60 15 90t62 43v2q-47 13 -62 43t-15 90v186q0 56 -15.5 86t-54.5 42v12q94 0 131.5 -28.5t37.5 -117.5v-196q0 -52 15 -78t58 -40q-43 -14 -58 -40t-15 -78z" />
    <glyph glyph-name="asciitilde" unicode="~" horiz-adv-x="584" 
d="M97 181l-46 52q27 43 58 66.5t74 23.5q56 0 118 -34q64 -34 100 -34q44 0 88 64l44 -52q-28 -43 -58.5 -66t-73.5 -22q-38 0 -112 34l-14.5 7l-15 7l-13.5 6t-15.5 6t-15 4t-16.5 3t-16 1q-47 0 -86 -66z" />
    <glyph glyph-name="uni00A0" unicode="&#xa0;" 
 />
    <glyph glyph-name="exclamdown" unicode="&#xa1;" horiz-adv-x="219" 
d="M202 -160h-189q14 18 21.5 31.5t16 52t8.5 91.5v207q-1 44 6.5 74t39.5 89h10q28 -56 36.5 -81.5t8.5 -68.5v-206q0 -59 6.5 -98t13.5 -53.5t22 -37.5zM111 596q33 0 56.5 -23t23.5 -57q0 -32 -23.5 -55.5t-56.5 -23.5q-32 0 -55.5 23.5t-23.5 55.5q0 34 23 57t56 23z
" />
    <glyph glyph-name="cent" unicode="&#xa2;" horiz-adv-x="427" 
d="M413 523l-9 -111q-24 25 -41.5 35.5t-47.5 16.5l-116 -336q47 -40 109 -40q45 0 112 20l-54 -84q-45 -13 -86 -13q-58 0 -112 26l-64 -187l-72 -3l79 231q-73 71 -73 179q0 41 11.5 82.5t36 83t71.5 71t110 36.5l63 184l72 3l-64 -185q35 -3 75 -9zM154 203l88 255
q-99 -38 -99 -175q0 -43 11 -80z" />
    <glyph glyph-name="sterling" unicode="&#xa3;" horiz-adv-x="552" 
d="M499 727l-5 -122q-65 55 -123 55q-70 0 -102 -61q-17 -34 -27 -175q59 0 77.5 3t51.5 17l-5 -122q-48 20 -128 19q-5 -136 -58 -265q84 -2 155.5 6t108.5 17t101 28l-46 -127h-479q51 88 77.5 159t33.5 182q-77 1 -117 -19v122q26 -13 48.5 -17.5t68.5 -2.5q5 98 15 149
t36 91q60 91 183 91q66 0 134 -28z" />
    <glyph glyph-name="currency" unicode="&#xa4;" horiz-adv-x="688" 
d="M344 451q-56 0 -94 -41.5t-38 -98.5q0 -56 38 -97t94 -41q57 0 95.5 40.5t38.5 97.5t-38.5 98.5t-95.5 41.5zM69 90l98 98q-37 53 -37 123q0 72 37 123l-98 98l56 54l96 -98q53 39 123 39q74 0 123 -39l98 98l54 -54l-98 -98q39 -53 39 -123t-39 -123l98 -98l-54 -54
l-98 98q-51 -37 -123 -37q-73 0 -123 37l-96 -98z" />
    <glyph glyph-name="yen" unicode="&#xa5;" horiz-adv-x="625" 
d="M472 750l136 -2q-33 -43 -55 -83l-135 -235q79 0 133 9v-101q-59 9 -141 9h-38v-97h53q78 0 126 8v-101q-59 9 -141 9h-38v-77q0 -50 21 -89h-143q20 47 20 127v39h-34q-97 0 -162 -9v101q73 -8 146 -8h50v97h-34q-97 0 -162 -9v101q73 -9 148 -9l-117 209
q-26 46 -43 66.5t-45 42.5l162 2q-2 -21 3 -42.5t11 -33l19 -35.5l112 -204l110 199q24 43 32 66.5t6 49.5z" />
    <glyph glyph-name="brokenbar" unicode="&#xa6;" horiz-adv-x="542" 
d="M230 -175v350h82v-350h-82zM230 325v350h82v-350h-82z" />
    <glyph glyph-name="section" unicode="&#xa7;" horiz-adv-x="396" 
d="M336 737v-136q-58 66 -108 66q-34 0 -58.5 -25t-24.5 -60q0 -29 16.5 -51.5t36 -34.5t62.5 -33q58 -30 86 -59t28 -78q0 -64 -44 -86l-76 -38q26 -14 40.5 -24t34 -28.5t28.5 -43.5t9 -57q0 -81 -63 -128.5t-134 -47.5q-62 0 -124 32v147q12 -18 21 -29t26 -28
t39.5 -25.5t48.5 -8.5q32 0 55.5 22t23.5 56q0 36 -23 55.5t-72 42.5q-45 21 -74 43t-41 43t-15.5 35t-3.5 32q0 29 10.5 48t35.5 40l62 44q-17 9 -25.5 14t-28 20t-30.5 29t-20.5 36.5t-9.5 46.5q0 74 61 130t155 56q43 0 96 -17zM148 416q-29 -40 -29 -75q0 -44 28 -70
t99 -65q39 58 39 91q0 32 -31 58q-8 6 -55.5 32.5t-50.5 28.5z" />
    <glyph glyph-name="dieresis" unicode="&#xa8;" 
d="M35 726h94q-7 -66 -46 -127h-81q31 73 33 127zM238 726h93q-5 -60 -45 -127h-82q32 71 34 127z" />
    <glyph glyph-name="copyright" unicode="&#xa9;" horiz-adv-x="780" 
d="M765 375q0 -160 -108 -270.5t-266 -110.5t-267 110.5t-109 270.5t109 271.5t267 111.5t266 -111.5t108 -271.5zM87 375q0 -134 88.5 -230.5t215.5 -96.5q126 0 214 96.5t88 230.5t-87.5 231.5t-214.5 97.5t-215.5 -97.5t-88.5 -231.5zM575 286l-17 -78q-2 -12 -32 -21
q-66 -21 -114 -21q-104 0 -168 55.5t-64 163.5q0 37 13.5 73t41 68.5t76 52.5t110.5 20q58 0 111 -19q24 -10 24 -24v-78h-21q-8 40 -36 66.5t-81 26.5q-65 0 -102 -48.5t-39 -130.5q0 -91 36 -145t110 -54q90 0 128 93h24z" />
    <glyph glyph-name="ordfeminine" unicode="&#xaa;" horiz-adv-x="292" 
d="M264 442h-89v38l-46 -35q-1 0 -11.5 -1.5t-16.5 -1.5q-31 0 -61.5 20.5t-30.5 54.5q0 43 61 76l52 22.5t53 23.5v16q0 23 -10 32q-21 19 -54 19q-25 0 -72 -26l21 65l47 10q11 2 30 2q71 0 100 -44q11 -18 11 -48l2 -179q3 -12 14 -44zM175 496v82h-75q-11 -28 -11 -43
q0 -43 57 -43q13 0 29 4z" />
    <glyph glyph-name="guillemotleft" unicode="&#xab;" horiz-adv-x="490" 
d="M127 509h110l-91 -213l91 -213h-110l-105 213zM362 509h109l-92 -213l94 -213h-111l-107 213z" />
    <glyph glyph-name="logicalnot" unicode="&#xac;" horiz-adv-x="667" 
d="M504 108v205h-422v82h504v-287h-82z" />
    <glyph glyph-name="uni00AD" unicode="&#xad;" horiz-adv-x="281" 
d="M24 202v121q78 -13 124 -13q48 0 119 13v-121q-69 13 -127 13q-54 0 -116 -13z" />
    <glyph glyph-name="registered" unicode="&#xae;" horiz-adv-x="780" 
d="M212 569v18h203q54 0 89.5 -26.5t35.5 -76.5q0 -39 -24 -70t-63 -43l64 -90q44 -62 77 -91v-11h-81q-16 0 -32 21.5t-44.5 74t-49.5 83.5h-43v-112q0 -33 6 -39t44 -10v-18h-182v18q37 4 43.5 10.5t6.5 38.5v272q0 34 -6.5 40.5t-43.5 10.5zM344 564v-183h41
q35 0 52 27.5t17 70.5q0 85 -69 85h-41zM765 375q0 -160 -108 -270.5t-266 -110.5t-267 110.5t-109 270.5t109 271.5t267 111.5t266 -111.5t108 -271.5zM87 375q0 -134 88.5 -230.5t215.5 -96.5q126 0 214 96.5t88 230.5t-87.5 231.5t-214.5 97.5t-215.5 -97.5t-88.5 -231.5
z" />
    <glyph glyph-name="macron" unicode="&#xaf;" 
d="M2 599v90h330v-90h-330z" />
    <glyph glyph-name="degree" unicode="&#xb0;" horiz-adv-x="396" 
d="M199 758q61 0 104.5 -43t43.5 -105q0 -63 -43 -106.5t-105 -43.5q-63 0 -106.5 43.5t-43.5 106.5q0 62 43.5 105t106.5 43zM199 716q-43 0 -72.5 -31.5t-29.5 -74.5q0 -44 29.5 -76t72.5 -32q42 0 71 32t29 76q0 43 -29.5 74.5t-70.5 31.5z" />
    <glyph glyph-name="plusminus" unicode="&#xb1;" horiz-adv-x="667" 
d="M293 358v172h82v-172h211v-82h-211v-172h-82v172h-211v82h211zM82 -36v82h504v-82h-504z" />
    <glyph glyph-name="two.superior" unicode="&#xb2;" horiz-adv-x="375" 
d="M139 602l-75 41q-5 49 33 81.5t98 32.5q58 0 92.5 -30.5t34.5 -67.5q0 -44 -70 -129l-97 -116h89q20 0 30.5 1.5t28 11t38.5 29.5l-10 -95q-49 3 -92 3q-27 1 -61 1q-66 0 -149 -4v7l97 113t83 101q38 49 38 74q0 26 -19 37t-39 11q-25 0 -43 -15.5t-18 -40.5
q0 -19 11 -46z" />
    <glyph glyph-name="three.superior" unicode="&#xb3;" horiz-adv-x="375" 
d="M46 754h304v-9q-99 -138 -115 -165q82 -28 82 -99q0 -41 -37 -80.5t-111 -39.5q-80 0 -137 42l63 77q14 -72 80 -72q35 0 54 20t19 45q0 20 -13.5 37.5t-31.5 24.5q-23 10 -72 11l63 83l47 73q-26 4 -64 4q-63 0 -85.5 -9.5t-47.5 -36.5z" />
    <glyph glyph-name="acute" unicode="&#xb4;" 
d="M164 747h96q-33 -104 -116 -167h-31q44 87 51 167z" />
    <glyph glyph-name="mu" unicode="&#xb5;" horiz-adv-x="552" 
d="M367 106l-79 -85q-42 -21 -64 -21q-24 0 -37 9v-73q0 -37 28 -97l-149 1q20 46 20 122v430q0 76 -27 132h153q-11 -17 -15 -25.5t-7 -23.5t-3 -38v-288q14 -69 82 -69q46 0 98 36v285q0 76 -20 121l147 2q-26 -55 -26 -97v-304q0 -74 18 -123h-123q4 48 4 106z" />
    <glyph glyph-name="paragraph" unicode="&#xb6;" horiz-adv-x="542" 
d="M238 752h274v-24q-65 -7 -74 -24q-4 -10 -4 -78v-610q0 -62 2 -74q1 -4 3.5 -7.5t7 -6t8.5 -4t12.5 -3t13.5 -2.5t15.5 -2.5t15.5 -2.5v-24h-160v810h-58v-810h-160v24q5 1 15.5 2.5t15.5 2.5t13.5 2.5t12.5 3t8.5 4t7 6t3.5 7.5q2 16 2 74v330q-87 4 -134.5 62.5
t-47.5 143.5q0 83 57 141.5t151 58.5z" />
    <glyph glyph-name="periodcentered" unicode="&#xb7;" horiz-adv-x="240" 
d="M121 459q33 0 56.5 -23t23.5 -57q0 -33 -23.5 -56.5t-56.5 -23.5t-56.5 23.5t-23.5 56.5q0 34 23.5 57t56.5 23z" />
    <glyph glyph-name="cedilla" unicode="&#xb8;" 
d="M68 -151l25 41q31 -9 45 -9q23 0 34.5 11t11.5 26q0 18 -13.5 27t-26.5 9t-38 -9l5 46q32 10 54 10q42 0 64 -24.5t22 -57.5q0 -37 -29.5 -61t-79.5 -24q-31 0 -74 15z" />
    <glyph glyph-name="one.superior" unicode="&#xb9;" horiz-adv-x="375" 
d="M105 685l103 72h18v-333q0 -34 14 -60h-113q21 33 21 81v240h-43z" />
    <glyph glyph-name="ordmasculine" unicode="&#xba;" horiz-adv-x="344" 
d="M163 757q75 2 123 -40.5t48 -110.5q0 -47 -19.5 -83t-48.5 -54.5t-55 -27t-46 -8.5q-60 0 -107.5 38t-47.5 113q0 37 11.5 66.5t25.5 46t39 30.5t39 18.5t38 11.5zM207 484q55 41 55 110q0 46 -28 80.5t-68 34.5q-33 0 -54.5 -28t-21.5 -73q0 -61 36 -94t81 -30z" />
    <glyph glyph-name="guillemotright" unicode="&#xbb;" horiz-adv-x="490" 
d="M363 509l105 -213l-105 -213h-111l92 213l-92 213h111zM128 509l106 -213l-106 -213h-112l94 213l-91 213h109z" />
    <glyph glyph-name="onequarter" unicode="&#xbc;" horiz-adv-x="885" 
d="M668 392h73v-203h17q34 0 59 14v-75q-31 13 -76 13v-47q4 -61 17 -94h-109q16 43 16 98v43h-182v46q35 27 65 63zM567 189h100v119zM103 685l103 72h18v-334q0 -36 14 -59h-113q21 33 21 81v240h-43zM136 -22l446 779h67l-446 -779h-67z" />
    <glyph glyph-name="onehalf" unicode="&#xbd;" horiz-adv-x="885" 
d="M103 685l103 72h18v-333q0 -34 14 -60h-113q21 35 21 82v239h-43zM611 238l-75 41q-5 49 33 81.5t98 32.5q58 0 92.5 -30.5t34.5 -67.5q0 -44 -70 -128l-97 -116h89q20 0 30.5 1.5t28 11t38.5 29.5l-10 -96q-49 3 -92 3q-27 1 -61 1q-66 0 -149 -4v7l98 115t82 99
q38 49 38 74q0 26 -19 37t-39 11q-25 0 -43 -15.5t-18 -40.5q0 -18 11 -46zM146 -21l446 778h68l-447 -778h-67z" />
    <glyph glyph-name="threequarters" unicode="&#xbe;" horiz-adv-x="885" 
d="M698 393h73v-204h17q34 0 59 14v-75q-31 13 -76 13v-47q4 -61 17 -94h-109q16 43 16 98v43h-181v46q34 28 64 63zM597 189h100v120zM85 754h304v-9q-99 -138 -115 -165q82 -28 82 -99q0 -41 -37 -80.5t-111 -39.5q-80 0 -137 42l63 77q14 -72 80 -72q35 0 54 20t19 45
q0 20 -13.5 37.5t-31.5 24.5q-23 10 -72 11l63 83l47 73q-26 4 -64 4q-63 0 -85.5 -9.5t-47.5 -36.5zM197 -22l445 780h67l-445 -780h-67z" />
    <glyph glyph-name="questiondown" unicode="&#xbf;" horiz-adv-x="427" 
d="M414 -30l-7 -111q-58 -22 -113 -22q-123 0 -189 69t-66 162q0 45 13.5 83.5t29.5 60.5t43.5 42.5t40.5 27t35 16.5q72 31 90.5 44t34.5 43h11q5 -48 5 -95q0 -23 -9 -34t-28 -17q-31 -10 -50 -18t-47 -26.5t-42.5 -49.5t-14.5 -73q0 -66 44 -106.5t102 -40.5
q26 0 50.5 8.5t35 15t31.5 21.5zM323 602q33 0 56.5 -23t23.5 -56q0 -32 -23 -55.5t-56 -23.5t-56.5 23.5t-23.5 55.5q0 33 23 56t56 23z" />
    <glyph glyph-name="Agrave" unicode="&#xc0;" horiz-adv-x="792" 
d="M415 753l254 -548q55 -118 117 -203l-178 -2q0 62 -31 132l-44 101h-263l-38 -81q-42 -91 -38 -152h-183q45 52 109 179l289 574h6zM407 522l-95 -201h182zM472 786h-46q-102 45 -142 143h109q16 -66 79 -143z" />
    <glyph glyph-name="Aacute" unicode="&#xc1;" horiz-adv-x="792" 
d="M415 753l254 -548q55 -118 117 -203l-178 -2q0 62 -31 132l-44 101h-263l-38 -81q-42 -91 -38 -152h-183q45 52 109 179l289 574h6zM407 522l-95 -201h182zM415 929h109q-40 -99 -142 -144h-46q63 77 79 144z" />
    <glyph glyph-name="Acircumflex" unicode="&#xc2;" horiz-adv-x="792" 
d="M415 753l254 -548q55 -118 117 -203l-178 -2q0 62 -31 132l-44 101h-263l-38 -81q-42 -91 -38 -152h-183q45 52 109 179l289 574h6zM407 522l-95 -201h182zM349 929h131q29 -88 84 -145h-50q-66 43 -99 87q-32 -41 -98 -87h-53q58 67 85 145z" />
    <glyph glyph-name="Atilde" unicode="&#xc3;" horiz-adv-x="792" 
d="M415 753l254 -548q55 -118 117 -203l-178 -2q0 62 -31 132l-44 101h-263l-38 -81q-42 -91 -38 -152h-183q45 52 109 179l289 574h6zM407 522l-95 -201h182zM580 916h67q-2 -40 -19 -68.5t-41.5 -41t-43 -17t-33.5 -4.5q-36 0 -93 22q-69 27 -90 27q-24 0 -38 -11t-14 -25
l2 -13h-69q4 59 43 95.5t88 36.5q29 0 83 -23q66 -28 106 -28q56 0 52 50z" />
    <glyph glyph-name="Adieresis" unicode="&#xc4;" horiz-adv-x="792" 
d="M415 753l254 -548q55 -118 117 -203l-178 -2q0 62 -31 132l-44 101h-263l-38 -81q-42 -91 -38 -152h-183q45 52 109 179l289 574h6zM407 522l-95 -201h182zM273 913h110q-4 -23 -7.5 -37t-15.5 -39t-32 -51h-93q31 66 38 127zM530 913h110q-4 -23 -7.5 -37t-15.5 -39
t-32 -51h-92q33 70 37 127z" />
    <glyph glyph-name="Aring" unicode="&#xc5;" horiz-adv-x="792" 
d="M436 705l232 -500q57 -122 117 -203l-178 -2q0 62 -30 132l-45 101h-262l-38 -81q-42 -91 -38 -152h-183q45 52 109 179l265 527q-38 10 -60 39.5t-22 65.5q0 46 32 78t78 32q45 0 77 -33t32 -78q0 -37 -23.5 -66.5t-62.5 -38.5zM407 522l-95 -201h182zM412 869
q-24 0 -41 -16.5t-17 -41.5t17 -42t41 -17t41 17t17 42q0 24 -17 41t-41 17z" />
    <glyph glyph-name="AE" unicode="&#xc6;" horiz-adv-x="927" 
d="M461 750h412l-49 -117q-51 25 -95.5 35.5t-119.5 11.5v-259h224l-57 -120q-56 30 -133 30h-34v-259q104 11 163 23.5t138 40.5l-63 -136h-378q28 103 28 184v147h-170l-60 -110q-69 -128 -64 -221h-190q55 77 101 153zM375 421h122v227z" />
    <glyph glyph-name="Ccedilla" unicode="&#xc7;" horiz-adv-x="656" 
d="M630 728v-120q-103 54 -195 54q-125 0 -204.5 -82.5t-79.5 -208.5q0 -120 74.5 -202.5t201.5 -82.5q53 0 101 15.5t68.5 29t51.5 36.5l-6 -116q-37 -18 -60.5 -28t-75 -20t-110.5 -9q29 -2 48.5 -12.5t27 -25.5t9.5 -24t2 -16q0 -35 -29 -57.5t-86 -22.5q-29 0 -74 9
l16 43q32 -5 52 -5q22 0 35.5 10t13.5 24q0 15 -15.5 25t-35.5 10l-29 -3l4 42q30 4 52 3q-80 4 -143.5 31t-102 66.5t-64.5 89t-35.5 93.5t-9.5 85q0 76 31 147t86.5 127t139 90t180.5 34q78 0 161 -29z" />
    <glyph glyph-name="Egrave" unicode="&#xc8;" horiz-adv-x="510" 
d="M55 750h404l-57 -116q-63 29 -105.5 38t-101.5 7v-262h235l-64 -105q-95 28 -171 33v-274q59 0 89.5 2t86.5 14t132 38l-55 -125h-393q28 95 28 193v367q0 103 -28 190zM332 786h-46q-102 45 -142 143h109q16 -66 79 -143z" />
    <glyph glyph-name="Eacute" unicode="&#xc9;" horiz-adv-x="510" 
d="M55 750h404l-57 -116q-63 29 -105.5 38t-101.5 7v-262h235l-64 -105q-95 28 -171 33v-274q59 0 89.5 2t86.5 14t132 38l-55 -125h-393q28 95 28 193v367q0 103 -28 190zM274 929h109q-40 -99 -142 -144h-46q63 77 79 144z" />
    <glyph glyph-name="Ecircumflex" unicode="&#xca;" horiz-adv-x="510" 
d="M55 750h404l-57 -116q-63 29 -105.5 38t-101.5 7v-262h235l-64 -105q-95 28 -171 33v-274q59 0 89.5 2t86.5 14t132 38l-55 -125h-393q28 95 28 193v367q0 103 -28 190zM198 929h131q29 -88 84 -145h-50q-66 43 -99 87q-32 -41 -98 -87h-53q58 67 85 145z" />
    <glyph glyph-name="Edieresis" unicode="&#xcb;" horiz-adv-x="510" 
d="M55 750h404l-57 -116q-63 29 -105.5 38t-101.5 7v-262h235l-64 -105q-95 28 -171 33v-274q59 0 89.5 2t86.5 14t132 38l-55 -125h-393q28 95 28 193v367q0 103 -28 190zM98 913h110q-4 -23 -7.5 -37t-15.5 -39t-32 -51h-93q31 66 38 127zM355 913h110q-4 -23 -7.5 -37
t-15.5 -39t-32 -51h-92q33 70 37 127z" />
    <glyph glyph-name="Igrave" unicode="&#xcc;" horiz-adv-x="281" 
d="M59 750h169q-28 -88 -28 -198v-345q0 -106 28 -207h-169q10 31 15 50t9.5 63t4.5 102v357q0 108 -29 178zM218 786h-46q-102 45 -142 143h109q16 -66 79 -143z" />
    <glyph glyph-name="Iacute" unicode="&#xcd;" horiz-adv-x="281" 
d="M59 750h169q-28 -88 -28 -198v-345q0 -106 28 -207h-169q10 31 15 50t9.5 63t4.5 102v357q0 108 -29 178zM160 929h109q-40 -99 -142 -144h-46q63 77 79 144z" />
    <glyph glyph-name="Icircumflex" unicode="&#xce;" horiz-adv-x="281" 
d="M59 750h169q-28 -88 -28 -198v-345q0 -106 28 -207h-169q10 31 15 50t9.5 63t4.5 102v357q0 108 -29 178zM83 929h131q29 -88 84 -145h-50q-66 43 -99 87q-32 -41 -98 -87h-53q58 67 85 145z" />
    <glyph glyph-name="Idieresis" unicode="&#xcf;" horiz-adv-x="281" 
d="M59 750h169q-28 -88 -28 -198v-345q0 -106 28 -207h-169q10 31 15 50t9.5 63t4.5 102v357q0 108 -29 178zM-16 913h110q-4 -23 -7.5 -37t-15.5 -39t-32 -51h-93q31 66 38 127zM241 913h110q-4 -23 -7.5 -37t-15.5 -39t-32 -51h-92q33 70 37 127z" />
    <glyph glyph-name="Eth" unicode="&#xd0;" horiz-adv-x="635" 
d="M9 333v95q45 -5 72 -5v122q0 25 -2 49.5t-4 41t-6 37t-6 29.5t-6.5 26t-5.5 19q52 4 78 4q62 0 109.5 -5t106.5 -19.5t110 -48.5t92 -86q75 -97 75 -224q0 -152 -107.5 -260t-282.5 -108h-181q10 30 15.5 50.5t10 66.5t4.5 111v112q-46 -3 -72 -7zM356 428v-95
q-74 10 -132 10h-31v-97q0 -113 6 -173q79 8 138.5 39.5t91 77.5t46.5 93t15 95q0 35 -7 69t-27 73t-51.5 70.5t-84.5 56.5t-121 34q-6 -46 -6 -137v-124h41q68 0 122 8z" />
    <glyph glyph-name="Ntilde" unicode="&#xd1;" horiz-adv-x="792" 
d="M9 750h179q9 -21 14.5 -32t21.5 -35t44 -60l339 -430v341q0 141 -21 216h144q-19 -76 -19 -160v-403q0 -117 25 -187h-139q-15 46 -64 108l-319 408v-296q0 -140 30 -220h-159q25 81 25 198v451q-42 54 -101 101zM556 916h67q-2 -40 -19 -68.5t-41.5 -41t-43 -17
t-33.5 -4.5q-36 0 -93 22q-69 27 -90 27q-24 0 -38 -11t-14 -25l2 -13h-69q4 59 43 95.5t88 36.5q29 0 83 -23q66 -28 106 -28q56 0 52 50z" />
    <glyph glyph-name="Ograve" unicode="&#xd2;" horiz-adv-x="844" 
d="M35 383q0 51 17.5 103t52.5 100.5t83 86.5t115 60.5t143 22.5q90 0 162.5 -32t117.5 -86t69 -120.5t24 -139.5q0 -171 -114 -277t-278 -106q-116 0 -207.5 57.5t-138 145t-46.5 185.5zM161 400q0 -97 45 -173t112 -113.5t140 -37.5q60 0 108.5 26t77 67.5t44 88
t15.5 92.5q0 79 -36 153t-105 123.5t-153 49.5q-110 0 -179 -81.5t-69 -194.5zM498 786h-46q-102 45 -142 143h109q16 -66 79 -143z" />
    <glyph glyph-name="Oacute" unicode="&#xd3;" horiz-adv-x="844" 
d="M35 383q0 51 17.5 103t52.5 100.5t83 86.5t115 60.5t143 22.5q90 0 162.5 -32t117.5 -86t69 -120.5t24 -139.5q0 -171 -114 -277t-278 -106q-116 0 -207.5 57.5t-138 145t-46.5 185.5zM161 400q0 -97 45 -173t112 -113.5t140 -37.5q60 0 108.5 26t77 67.5t44 88
t15.5 92.5q0 79 -36 153t-105 123.5t-153 49.5q-110 0 -179 -81.5t-69 -194.5zM439 929h109q-40 -99 -142 -144h-46q63 77 79 144z" />
    <glyph glyph-name="Ocircumflex" unicode="&#xd4;" horiz-adv-x="844" 
d="M35 383q0 51 17.5 103t52.5 100.5t83 86.5t115 60.5t143 22.5q90 0 162.5 -32t117.5 -86t69 -120.5t24 -139.5q0 -171 -114 -277t-278 -106q-116 0 -207.5 57.5t-138 145t-46.5 185.5zM161 400q0 -97 45 -173t112 -113.5t140 -37.5q60 0 108.5 26t77 67.5t44 88
t15.5 92.5q0 79 -36 153t-105 123.5t-153 49.5q-110 0 -179 -81.5t-69 -194.5zM364 929h131q29 -88 84 -145h-50q-66 43 -99 87q-32 -41 -98 -87h-53q58 67 85 145z" />
    <glyph glyph-name="Otilde" unicode="&#xd5;" horiz-adv-x="844" 
d="M35 383q0 51 17.5 103t52.5 100.5t83 86.5t115 60.5t143 22.5q90 0 162.5 -32t117.5 -86t69 -120.5t24 -139.5q0 -171 -114 -277t-278 -106q-116 0 -207.5 57.5t-138 145t-46.5 185.5zM161 400q0 -97 45 -173t112 -113.5t140 -37.5q60 0 108.5 26t77 67.5t44 88
t15.5 92.5q0 79 -36 153t-105 123.5t-153 49.5q-110 0 -179 -81.5t-69 -194.5zM582 916h67q-2 -40 -19 -68.5t-41.5 -41t-43 -17t-33.5 -4.5q-36 0 -93 22q-69 27 -90 27q-24 0 -38 -11t-14 -25l2 -13h-69q4 59 43 95.5t88 36.5q29 0 83 -23q66 -28 106 -28q56 0 52 50z" />
    <glyph glyph-name="Odieresis" unicode="&#xd6;" horiz-adv-x="844" 
d="M35 383q0 51 17.5 103t52.5 100.5t83 86.5t115 60.5t143 22.5q90 0 162.5 -32t117.5 -86t69 -120.5t24 -139.5q0 -171 -114 -277t-278 -106q-116 0 -207.5 57.5t-138 145t-46.5 185.5zM161 400q0 -97 45 -173t112 -113.5t140 -37.5q60 0 108.5 26t77 67.5t44 88
t15.5 92.5q0 79 -36 153t-105 123.5t-153 49.5q-110 0 -179 -81.5t-69 -194.5zM264 913h110q-4 -23 -7.5 -37t-15.5 -39t-32 -51h-93q31 66 38 127zM521 913h110q-4 -23 -7.5 -37t-15.5 -39t-32 -51h-92q33 70 37 127z" />
    <glyph glyph-name="multiply" unicode="&#xd7;" horiz-adv-x="667" 
d="M278 253l-179 179l56 56l178 -179l180 179l56 -56l-180 -179l180 -179l-56 -56l-180 180l-178 -180l-56 56z" />
    <glyph glyph-name="Oslash" unicode="&#xd8;" horiz-adv-x="844" 
d="M193 70l-65 -71l-60 55l65 71q-48 54 -73 121.5t-25 131.5q0 70 29.5 138t82 121.5t131 86t168.5 32.5q118 0 214 -60l58 61l60 -55l-56 -60q97 -108 97 -264q0 -171 -113.5 -277t-278.5 -106q-134 0 -234 75zM638 551l-370 -400q84 -75 190 -75q60 0 108.5 26t77.5 67.5
t44 88.5t15 92q0 51 -18 106t-47 95zM214 213l368 398q-77 65 -173 65q-106 0 -177 -79.5t-71 -203.5q0 -98 53 -180z" />
    <glyph glyph-name="Ugrave" unicode="&#xd9;" horiz-adv-x="750" 
d="M51 750h160q-14 -40 -19 -73.5t-5 -106.5v-273q0 -65 15 -103q25 -61 75.5 -89.5t96.5 -28.5q59 0 107.5 38.5t64.5 92.5q6 23 6 75v296q0 115 -27 172h160q-20 -53 -20 -153v-400q0 -96 20 -197h-133q6 52 5 74q-132 -81 -238 -81q-114 0 -179 79t-65 210v296
q0 54 -4 89t-7.5 48.5t-12.5 34.5zM451 786h-46q-102 45 -142 143h109q16 -66 79 -143z" />
    <glyph glyph-name="Uacute" unicode="&#xda;" horiz-adv-x="750" 
d="M51 750h160q-14 -40 -19 -73.5t-5 -106.5v-273q0 -65 15 -103q25 -61 75.5 -89.5t96.5 -28.5q59 0 107.5 38.5t64.5 92.5q6 23 6 75v296q0 115 -27 172h160q-20 -53 -20 -153v-400q0 -96 20 -197h-133q6 52 5 74q-132 -81 -238 -81q-114 0 -179 79t-65 210v296
q0 54 -4 89t-7.5 48.5t-12.5 34.5zM394 929h109q-40 -99 -142 -144h-46q63 77 79 144z" />
    <glyph glyph-name="Ucircumflex" unicode="&#xdb;" horiz-adv-x="750" 
d="M51 750h160q-14 -40 -19 -73.5t-5 -106.5v-273q0 -65 15 -103q25 -61 75.5 -89.5t96.5 -28.5q59 0 107.5 38.5t64.5 92.5q6 23 6 75v296q0 115 -27 172h160q-20 -53 -20 -153v-400q0 -96 20 -197h-133q6 52 5 74q-132 -81 -238 -81q-114 0 -179 79t-65 210v296
q0 54 -4 89t-7.5 48.5t-12.5 34.5zM317 929h131q29 -88 84 -145h-50q-66 43 -99 87q-32 -41 -98 -87h-53q58 67 85 145z" />
    <glyph glyph-name="Udieresis" unicode="&#xdc;" horiz-adv-x="750" 
d="M51 750h160q-14 -40 -19 -73.5t-5 -106.5v-273q0 -65 15 -103q25 -61 75.5 -89.5t96.5 -28.5q59 0 107.5 38.5t64.5 92.5q6 23 6 75v296q0 115 -27 172h160q-20 -53 -20 -153v-400q0 -96 20 -197h-133q6 52 5 74q-132 -81 -238 -81q-114 0 -179 79t-65 210v296
q0 54 -4 89t-7.5 48.5t-12.5 34.5zM217 913h110q-4 -23 -7.5 -37t-15.5 -39t-32 -51h-93q31 66 38 127zM474 913h110q-4 -23 -7.5 -37t-15.5 -39t-32 -51h-92q33 70 37 127z" />
    <glyph glyph-name="Yacute" unicode="&#xdd;" horiz-adv-x="625" 
d="M24 748l171 2q-4 -45 33 -111l105 -185l102 181q24 41 32 64.5t7 50.5l151 -1q-14 -18 -56 -84l-180 -316v-260q0 -50 20 -89h-152q20 51 20 128v212l-168 299q-26 48 -42.5 68.5t-42.5 40.5zM332 929h109q-40 -99 -142 -144h-46q63 77 79 144z" />
    <glyph glyph-name="Thorn" unicode="&#xde;" horiz-adv-x="531" 
d="M94 245v304q0 133 -29 201h171q-25 -73 -29 -153h63q114 0 183.5 -57.5t69.5 -152.5q0 -56 -22 -98t-58 -65t-75 -34t-80 -11h-81q5 -84 28 -179h-175q34 126 34 245zM206 548v-333l42 3q27 2 52.5 10.5t50 26t39.5 50t15 75.5q0 75 -48 124q-44 44 -151 44z" />
    <glyph glyph-name="germandbls" unicode="&#xdf;" horiz-adv-x="542" 
d="M195 380l36 68q133 28 133 124q0 45 -29.5 78t-73.5 33q-43 0 -59.5 -35t-17.5 -102v-366q0 -73 4.5 -103.5t22.5 -75.5h-158q22 43 27 67.5t5 87.5v350q0 42 1 66t10.5 63.5t27.5 62t55.5 40t91.5 17.5q55 0 98 -17t65 -42.5t33 -50.5t11 -46q0 -90 -106 -153
q17 -5 29 -10.5t34.5 -21t37 -35t26 -54.5t11.5 -79q0 -56 -22 -111t-72 -96.5t-117 -41.5q-18 0 -35 4l-30 78q34 -8 60 -8q32 0 54.5 13.5t32.5 36.5t13.5 42.5t3.5 40.5q0 47 -15 82t-35 52.5t-46 28t-42 13t-29 2.5z" />
    <glyph glyph-name="agrave" unicode="&#xe0;" horiz-adv-x="458" 
d="M75 412l28 92l66 14q18 4 46 4q44 0 79 -16t48.5 -30t21.5 -28q15 -27 15 -76l4 -299q0 -14 19 -73h-118v73q-40 -30 -86 -68q-30 -5 -42 -5q-24 0 -53 11.5t-54 41t-25 68.5q0 95 184 168q49 19 76 38v27q0 30 -6 42q-11 20 -40 35t-64 15q-42 0 -99 -34zM284 82v147
h-134q-19 -45 -19 -79q0 -77 99 -77q23 0 54 9zM283 580h-31q-83 63 -116 167h96q7 -80 51 -167z" />
    <glyph glyph-name="aacute" unicode="&#xe1;" horiz-adv-x="458" 
d="M75 412l28 92l66 14q18 4 46 4q44 0 79 -16t48.5 -30t21.5 -28q15 -27 15 -76l4 -299q0 -14 19 -73h-118v73q-40 -30 -86 -68q-30 -5 -42 -5q-24 0 -53 11.5t-54 41t-25 68.5q0 95 184 168q49 19 76 38v27q0 30 -6 42q-11 20 -40 35t-64 15q-42 0 -99 -34zM284 82v147
h-134q-19 -45 -19 -79q0 -77 99 -77q23 0 54 9zM228 747h96q-33 -104 -116 -167h-31q44 87 51 167z" />
    <glyph glyph-name="acircumflex" unicode="&#xe2;" horiz-adv-x="458" 
d="M75 412l28 92l66 14q18 4 46 4q44 0 79 -16t48.5 -30t21.5 -28q15 -27 15 -76l4 -299q0 -14 19 -73h-118v73q-40 -30 -86 -68q-30 -5 -42 -5q-24 0 -53 11.5t-54 41t-25 68.5q0 95 184 168q49 19 76 38v27q0 30 -6 42q-11 20 -40 35t-64 15q-42 0 -99 -34zM284 82v147
h-134q-19 -45 -19 -79q0 -77 99 -77q23 0 54 9zM178 750h127q10 -82 66 -171h-36q-59 53 -94 109q-34 -52 -92 -109h-36q50 79 65 171z" />
    <glyph glyph-name="atilde" unicode="&#xe3;" horiz-adv-x="458" 
d="M75 412l28 92l66 14q18 4 46 4q44 0 79 -16t48.5 -30t21.5 -28q15 -27 15 -76l4 -299q0 -14 19 -73h-118v73q-40 -30 -86 -68q-30 -5 -42 -5q-24 0 -53 11.5t-54 41t-25 68.5q0 95 184 168q49 19 76 38v27q0 30 -6 42q-11 20 -40 35t-64 15q-42 0 -99 -34zM284 82v147
h-134q-19 -45 -19 -79q0 -77 99 -77q23 0 54 9zM362 728h63q-2 -64 -39.5 -98t-77.5 -34q-36 0 -83 31q-32 22 -63 22q-25 0 -34.5 -15t-6.5 -37h-63q2 64 39.5 98t77.5 34q37 0 83 -31q32 -22 63 -22q25 0 34.5 15t6.5 37z" />
    <glyph glyph-name="adieresis" unicode="&#xe4;" horiz-adv-x="458" 
d="M75 412l28 92l66 14q18 4 46 4q44 0 79 -16t48.5 -30t21.5 -28q15 -27 15 -76l4 -299q0 -14 19 -73h-118v73q-40 -30 -86 -68q-30 -5 -42 -5q-24 0 -53 11.5t-54 41t-25 68.5q0 95 184 168q49 19 76 38v27q0 30 -6 42q-11 20 -40 35t-64 15q-42 0 -99 -34zM284 82v147
h-134q-19 -45 -19 -79q0 -77 99 -77q23 0 54 9zM99 726h94q-7 -66 -46 -127h-81q31 73 33 127zM302 726h93q-5 -60 -45 -127h-82q32 71 34 127z" />
    <glyph glyph-name="aring" unicode="&#xe5;" horiz-adv-x="458" 
d="M75 412l28 92l66 14q18 4 46 4q44 0 79 -16t48.5 -30t21.5 -28q15 -27 15 -76l4 -299q0 -14 19 -73h-118v73q-40 -30 -86 -68q-30 -5 -42 -5q-24 0 -53 11.5t-54 41t-25 68.5q0 95 184 168q49 19 76 38v27q0 30 -6 42q-11 20 -40 35t-64 15q-42 0 -99 -34zM284 82v147
h-134q-19 -45 -19 -79q0 -77 99 -77q23 0 54 9zM230 739q31 0 53.5 -22t22.5 -55q0 -31 -22.5 -53.5t-53.5 -22.5q-32 0 -54.5 22.5t-22.5 53.5q0 32 23 54.5t54 22.5zM230 704q-17 0 -29 -12t-12 -29t12 -29t29 -12q16 0 28 12t12 29t-12 29t-28 12z" />
    <glyph glyph-name="ae" unicode="&#xe6;" horiz-adv-x="708" 
d="M79 416l26 86q65 21 108 21q91 0 141 -57q61 58 141 58q45 0 88 -24.5t66 -74.5q20 -44 20 -174l-282 -8q4 -71 28 -109q20 -32 52 -46t61 -14q53 0 121 33l-39 -82q-58 -24 -116 -24q-43 0 -75.5 9t-53.5 26t-30 28t-20 29l-113 -86q-25 -6 -42 -6q-49 0 -90.5 34
t-41.5 85q0 27 12.5 51.5t32 41.5t35 27t28.5 16q109 48 155 74q0 42 -4 57.5t-23 30.5q-34 29 -88 29q-43 0 -97 -31zM389 311h214q0 21 -0.5 33.5t-6 37t-15.5 39.5t-31 27t-51 12t-52 -12t-32.5 -27.5t-16.5 -39.5t-7.5 -37.5t-1.5 -32.5zM291 82v150h-139
q-17 -40 -17 -78q0 -36 19 -57.5t76 -21.5q21 0 61 7z" />
    <glyph glyph-name="ccedilla" unicode="&#xe7;" horiz-adv-x="427" 
d="M420 99l-54 -84q-45 -13 -85 -13v-1q37 -5 54 -27.5t17 -50.5q0 -38 -30 -62t-72 -24q-38 0 -73 19l27 39q26 -11 43 -11q18 0 29 11t11 27q0 15 -11 24t-22 9q-8 0 -40 -11v47q4 1 47 11v1q-97 7 -160 75.5t-63 169.5q0 27 5 57t22.5 70.5t46 72t80.5 53.5t120 22
q47 0 101 -10l-9 -110q-16 16 -26.5 25t-34 18.5t-51.5 9.5q-41 0 -71.5 -17t-46.5 -45.5t-23.5 -58t-7.5 -61.5q0 -54 16 -94.5t42 -61t52.5 -30t54.5 -9.5q45 0 112 20z" />
    <glyph glyph-name="egrave" unicode="&#xe8;" horiz-adv-x="448" 
d="M410 127l-49 -104q-67 -23 -116 -23q-60 0 -103 22.5t-65 60.5t-31.5 80t-9.5 90q0 128 57.5 199t152.5 71q66 0 112 -39.5t57 -112.5q6 -36 6 -121l-276 -6q13 -158 128 -158q47 0 137 41zM142 311h214q2 72 -24 110.5t-80 38.5q-53 0 -78.5 -38.5t-31.5 -110.5z
M276 580h-31q-83 63 -116 167h96q7 -80 51 -167z" />
    <glyph glyph-name="eacute" unicode="&#xe9;" horiz-adv-x="448" 
d="M410 127l-49 -104q-67 -23 -116 -23q-60 0 -103 22.5t-65 60.5t-31.5 80t-9.5 90q0 128 57.5 199t152.5 71q66 0 112 -39.5t57 -112.5q6 -36 6 -121l-276 -6q13 -158 128 -158q47 0 137 41zM142 311h214q2 72 -24 110.5t-80 38.5q-53 0 -78.5 -38.5t-31.5 -110.5z
M222 747h96q-33 -104 -116 -167h-31q44 87 51 167z" />
    <glyph glyph-name="ecircumflex" unicode="&#xea;" horiz-adv-x="448" 
d="M410 127l-49 -104q-67 -23 -116 -23q-60 0 -103 22.5t-65 60.5t-31.5 80t-9.5 90q0 128 57.5 199t152.5 71q66 0 112 -39.5t57 -112.5q6 -36 6 -121l-276 -6q13 -158 128 -158q47 0 137 41zM142 311h214q2 72 -24 110.5t-80 38.5q-53 0 -78.5 -38.5t-31.5 -110.5z
M178 750h127q10 -82 66 -171h-36q-59 53 -94 109q-34 -52 -92 -109h-36q50 79 65 171z" />
    <glyph glyph-name="edieresis" unicode="&#xeb;" horiz-adv-x="448" 
d="M410 127l-49 -104q-67 -23 -116 -23q-60 0 -103 22.5t-65 60.5t-31.5 80t-9.5 90q0 128 57.5 199t152.5 71q66 0 112 -39.5t57 -112.5q6 -36 6 -121l-276 -6q13 -158 128 -158q47 0 137 41zM142 311h214q2 72 -24 110.5t-80 38.5q-53 0 -78.5 -38.5t-31.5 -110.5z
M118 726h94q-7 -66 -46 -127h-81q31 73 33 127zM321 726h93q-5 -60 -45 -127h-82q32 71 34 127z" />
    <glyph glyph-name="igrave" unicode="&#xec;" horiz-adv-x="260" 
d="M49 525h152q-9 -17 -13 -27t-8 -37.5t-4 -66.5v-249q0 -96 30 -145h-161q19 30 25 54.5t6 96.5v243q0 48 -5.5 73.5t-21.5 57.5zM182 580h-31q-83 63 -116 167h96q7 -80 51 -167z" />
    <glyph glyph-name="iacute" unicode="&#xed;" horiz-adv-x="260" 
d="M49 525h152q-9 -17 -13 -27t-8 -37.5t-4 -66.5v-249q0 -96 30 -145h-161q19 30 25 54.5t6 96.5v243q0 48 -5.5 73.5t-21.5 57.5zM128 747h96q-33 -104 -116 -167h-31q44 87 51 167z" />
    <glyph glyph-name="icircumflex" unicode="&#xee;" horiz-adv-x="260" 
d="M49 525h152q-9 -17 -13 -27t-8 -37.5t-4 -66.5v-249q0 -96 30 -145h-161q19 30 25 54.5t6 96.5v243q0 48 -5.5 73.5t-21.5 57.5zM65 750h127q10 -82 66 -171h-36q-59 53 -94 109q-34 -52 -92 -109h-36q50 79 65 171z" />
    <glyph glyph-name="idieresis" unicode="&#xef;" horiz-adv-x="260" 
d="M49 525h152q-9 -17 -13 -27t-8 -37.5t-4 -66.5v-249q0 -96 30 -145h-161q19 30 25 54.5t6 96.5v243q0 48 -5.5 73.5t-21.5 57.5zM-1 726h94q-7 -66 -46 -127h-81q31 73 33 127zM202 726h93q-5 -60 -45 -127h-82q32 71 34 127z" />
    <glyph glyph-name="eth" unicode="&#xf0;" horiz-adv-x="542" 
d="M330 68q91 71 91 191q0 81 -46 140t-114 59q-53 0 -90.5 -47.5t-37.5 -127.5q0 -106 59.5 -163.5t137.5 -51.5zM159 566l-55 42l132 52q-65 50 -130 62l120 34q31 -15 93 -64l108 43l55 -43l-115 -44q149 -151 149 -337q0 -79 -23.5 -140.5t-55 -93.5t-71 -52.5
t-64.5 -26t-42 -5.5q-41 0 -80 14t-74.5 41.5t-57.5 77.5t-22 115q0 62 17 111t39 76.5t59.5 50.5t59.5 31t59 19q76 2 121 -33q-43 72 -95 120z" />
    <glyph glyph-name="ntilde" unicode="&#xf1;" horiz-adv-x="552" 
d="M182 423l75 82q46 24 80 24q44 0 88 -35.5t44 -101.5v-302q0 -46 19 -90h-134q16 42 16 87v289q0 21 -22.5 44.5t-72.5 23.5q-23 0 -41.5 -5t-27 -9.5t-24.5 -15.5v-298q0 -59 9 -116h-133q26 59 26 160v281q0 14 -14 84h113zM397 728h63q-2 -64 -39.5 -98t-77.5 -34
q-37 0 -83 31q-32 22 -63 22q-25 0 -34.5 -15t-6.5 -37h-63q2 64 39.5 98t77.5 34q37 0 83 -31q32 -22 63 -22q25 0 34.5 15t6.5 37z" />
    <glyph glyph-name="ograve" unicode="&#xf2;" horiz-adv-x="542" 
d="M259 530q109 4 182 -66t73 -185q0 -65 -20.5 -117t-50.5 -83t-66.5 -51.5t-66 -28t-51.5 -7.5q-41 0 -80 14t-74.5 42t-57 78t-21.5 115q0 62 17 111t39 77t59.5 51t59 31t58.5 19zM329 67q24 19 40.5 37t33.5 60t17 94q0 81 -46 141t-114 60q-53 0 -90 -48t-37 -128
q0 -107 59 -164.5t137 -51.5zM324 580h-31q-83 63 -116 167h96q7 -80 51 -167z" />
    <glyph glyph-name="oacute" unicode="&#xf3;" horiz-adv-x="542" 
d="M259 530q109 4 182 -66t73 -185q0 -65 -20.5 -117t-50.5 -83t-66.5 -51.5t-66 -28t-51.5 -7.5q-41 0 -80 14t-74.5 42t-57 78t-21.5 115q0 62 17 111t39 77t59.5 51t59 31t58.5 19zM329 67q24 19 40.5 37t33.5 60t17 94q0 81 -46 141t-114 60q-53 0 -90 -48t-37 -128
q0 -107 59 -164.5t137 -51.5zM269 747h96q-33 -104 -116 -167h-31q44 87 51 167z" />
    <glyph glyph-name="ocircumflex" unicode="&#xf4;" horiz-adv-x="542" 
d="M259 530q109 4 182 -66t73 -185q0 -65 -20.5 -117t-50.5 -83t-66.5 -51.5t-66 -28t-51.5 -7.5q-41 0 -80 14t-74.5 42t-57 78t-21.5 115q0 62 17 111t39 77t59.5 51t59 31t58.5 19zM329 67q24 19 40.5 37t33.5 60t17 94q0 81 -46 141t-114 60q-53 0 -90 -48t-37 -128
q0 -107 59 -164.5t137 -51.5zM207 750h127q10 -82 66 -171h-36q-59 53 -94 109q-34 -52 -92 -109h-36q50 79 65 171z" />
    <glyph glyph-name="otilde" unicode="&#xf5;" horiz-adv-x="542" 
d="M259 530q109 4 182 -66t73 -185q0 -65 -20.5 -117t-50.5 -83t-66.5 -51.5t-66 -28t-51.5 -7.5q-41 0 -80 14t-74.5 42t-57 78t-21.5 115q0 62 17 111t39 77t59.5 51t59 31t58.5 19zM329 67q24 19 40.5 37t33.5 60t17 94q0 81 -46 141t-114 60q-53 0 -90 -48t-37 -128
q0 -107 59 -164.5t137 -51.5zM392 728h63q-2 -64 -39.5 -98t-77.5 -34q-36 0 -83 31q-32 22 -63 22q-25 0 -34.5 -15t-6.5 -37h-63q2 64 39.5 98t77.5 34q37 0 83 -31q32 -22 63 -22q25 0 34.5 15t6.5 37z" />
    <glyph glyph-name="odieresis" unicode="&#xf6;" horiz-adv-x="542" 
d="M259 530q109 4 182 -66t73 -185q0 -65 -20.5 -117t-50.5 -83t-66.5 -51.5t-66 -28t-51.5 -7.5q-41 0 -80 14t-74.5 42t-57 78t-21.5 115q0 62 17 111t39 77t59.5 51t59 31t58.5 19zM329 67q24 19 40.5 37t33.5 60t17 94q0 81 -46 141t-114 60q-53 0 -90 -48t-37 -128
q0 -107 59 -164.5t137 -51.5zM141 726h94q-7 -66 -46 -127h-81q31 73 33 127zM344 726h93q-5 -60 -45 -127h-82q32 71 34 127z" />
    <glyph glyph-name="divide" unicode="&#xf7;" horiz-adv-x="667" 
d="M586 212h-504v82h504v-82zM262 460q0 30 21.5 51t50.5 21t50.5 -21.5t21.5 -50.5q0 -27 -21.5 -49.5t-49.5 -22.5q-29 0 -51 21.5t-22 50.5zM262 46q0 30 21.5 51t50.5 21t50.5 -21.5t21.5 -50.5q0 -27 -21.5 -49.5t-49.5 -22.5q-29 0 -51 21.5t-22 50.5z" />
    <glyph glyph-name="oslash" unicode="&#xf8;" horiz-adv-x="552" 
d="M118 43l-40 -43l-50 45l44 48q-40 61 -40 149q0 158 106 235q23 16 70.5 35t73.5 19q80 0 145 -50l43 47l50 -47l-45 -49q45 -63 45 -152q0 -65 -20.5 -117t-50.5 -83t-66.5 -51.5t-66 -28t-51.5 -7.5q-84 0 -147 50zM406 357l-213 -232q60 -64 142 -57q91 71 91 191
q0 43 -20 98zM156 185l211 230q-42 45 -101 45q-54 0 -90.5 -48.5t-36.5 -127.5q0 -56 17 -99z" />
    <glyph glyph-name="ugrave" unicode="&#xf9;" horiz-adv-x="552" 
d="M56 524h152q-11 -17 -15 -25.5t-7 -23.5t-3 -38v-288q14 -69 82 -69q46 0 98 36v285q0 76 -20 121l147 2q-26 -55 -26 -97v-304q0 -74 18 -123h-123q4 48 4 106l-79 -86q-39 -21 -75 -21q-15 0 -32.5 4.5t-47 28t-48.5 63.5l2 296q1 51 -5.5 77.5t-21.5 55.5zM329 580
h-31q-83 63 -116 167h96q7 -80 51 -167z" />
    <glyph glyph-name="uacute" unicode="&#xfa;" horiz-adv-x="552" 
d="M56 524h152q-11 -17 -15 -25.5t-7 -23.5t-3 -38v-288q14 -69 82 -69q46 0 98 36v285q0 76 -20 121l147 2q-26 -55 -26 -97v-304q0 -74 18 -123h-123q4 48 4 106l-79 -86q-39 -21 -75 -21q-15 0 -32.5 4.5t-47 28t-48.5 63.5l2 296q1 51 -5.5 77.5t-21.5 55.5zM275 747h96
q-33 -104 -116 -167h-31q44 87 51 167z" />
    <glyph glyph-name="ucircumflex" unicode="&#xfb;" horiz-adv-x="552" 
d="M56 524h152q-11 -17 -15 -25.5t-7 -23.5t-3 -38v-288q14 -69 82 -69q46 0 98 36v285q0 76 -20 121l147 2q-26 -55 -26 -97v-304q0 -74 18 -123h-123q4 48 4 106l-79 -86q-39 -21 -75 -21q-15 0 -32.5 4.5t-47 28t-48.5 63.5l2 296q1 51 -5.5 77.5t-21.5 55.5zM213 750
h127q10 -82 66 -171h-36q-59 53 -94 109q-34 -52 -92 -109h-36q50 79 65 171z" />
    <glyph glyph-name="udieresis" unicode="&#xfc;" horiz-adv-x="552" 
d="M56 524h152q-11 -17 -15 -25.5t-7 -23.5t-3 -38v-288q14 -69 82 -69q46 0 98 36v285q0 76 -20 121l147 2q-26 -55 -26 -97v-304q0 -74 18 -123h-123q4 48 4 106l-79 -86q-39 -21 -75 -21q-15 0 -32.5 4.5t-47 28t-48.5 63.5l2 296q1 51 -5.5 77.5t-21.5 55.5zM146 726h94
q-7 -66 -46 -127h-81q31 73 33 127zM349 726h93q-5 -60 -45 -127h-82q32 71 34 127z" />
    <glyph glyph-name="yacute" unicode="&#xfd;" horiz-adv-x="552" 
d="M31 525h140q6 -44 22 -81l103 -250q65 178 78.5 228t13.5 103h156q-21 -31 -32.5 -50t-33.5 -69.5t-55 -139.5l-68 -183q-16 -45 -53.5 -120.5t-48.5 -83.5l-58 -41h-98l65 78q22 27 78 146l-114 281q-50 118 -95 182zM275 747h96q-33 -104 -116 -167h-31q44 87 51 167z
" />
    <glyph glyph-name="thorn" unicode="&#xfe;" horiz-adv-x="542" 
d="M216 -159h-161q18 31 24 53.5t6 77.5v394v244q0 49 -22 117l141 28q-18 -91 -18 -170v-167q26 38 42.5 57t44.5 36t60 17q77 0 129.5 -66.5t52.5 -180.5q0 -124 -59.5 -193.5t-131.5 -69.5q-63 0 -138 64v-98q0 -55 5.5 -81.5t24.5 -61.5zM186 408v-292q44 -21 81 -21
q24 0 47 8.5t46 27.5t36.5 57.5t13.5 91.5q0 50 -15 85.5t-38.5 51t-42.5 22t-36 6.5q-43 0 -92 -37z" />
    <glyph glyph-name="ydieresis" unicode="&#xff;" horiz-adv-x="552" 
d="M31 525h140q6 -44 22 -81l103 -250q65 178 78.5 228t13.5 103h156q-21 -31 -32.5 -50t-33.5 -69.5t-55 -139.5l-68 -183q-16 -45 -53.5 -120.5t-48.5 -83.5l-58 -41h-98l65 78q22 27 78 146l-114 281q-50 118 -95 182zM165 726h94q-7 -66 -46 -127h-81q31 73 33 127z
M368 726h93q-5 -60 -45 -127h-82q32 71 34 127z" />
    <glyph glyph-name="dotlessi" unicode="&#x131;" horiz-adv-x="260" 
d="M49 525h152q-9 -17 -13 -27t-8 -37.5t-4 -66.5v-249q0 -96 30 -145h-161q19 30 25 54.5t6 96.5v243q0 48 -5.5 73.5t-21.5 57.5z" />
    <glyph glyph-name="Lslash" unicode="&#x141;" horiz-adv-x="500" 
d="M207 434l142 99v-98l-142 -101l-2 -258q161 14 289 65l-62 -141h-367q12 30 17 49t9 66.5t4 125.5v15l-68 -49v100l68 48v217q0 106 -26 177h169q-10 -25 -15 -41.5t-10 -53.5t-5 -89z" />
    <glyph glyph-name="lslash" unicode="&#x142;" horiz-adv-x="260" 
d="M229 530v-98l-46 -49v-228q0 -55 5.5 -82t26.5 -73h-170q39 71 39 119v155l-46 -49v98l46 49v238q0 49 -22 117l139 28q-18 -99 -18 -170v-104z" />
    <glyph glyph-name="OE" unicode="&#x152;" horiz-adv-x="958" 
d="M899 750l-37 -113q-101 48 -219 42v-255h225l-43 -99q-40 16 -76.5 21.5t-105.5 4.5v-278q91 -2 145.5 7.5t150.5 46.5l-50 -127h-358q-6 0 -35 -1.5t-46 -1.5q-68 -4 -80 -4q-131 0 -207 50q-145 94 -145 295q0 181 113 301t283 120q12 0 80 -4q55 -5 78 -5h327zM531 94
v558q-96 25 -161 25q-107 0 -172.5 -80.5t-65.5 -208.5q0 -137 68 -227.5t174 -90.5q55 0 157 24z" />
    <glyph glyph-name="oe" unicode="&#x153;" horiz-adv-x="844" 
d="M793 107l-41 -84q-70 -25 -126 -25q-42 0 -73.5 8.5t-52 25.5t-30 28.5t-20.5 29.5q-41 -44 -91 -68t-95 -24q-102 0 -169 68t-67 175q0 159 107 237q25 18 67.5 35t73.5 17q112 0 188 -92q65 91 165 91q11 0 23.5 -1t40 -10t49 -24.5t41 -49.5t25.5 -81q6 -49 3 -111
l-287 -5q2 -20 4 -31.5t8 -36.5t16 -40.5t25 -33t39 -26t54 -8.5q59 0 123 36zM525 313h222q1 53 -7 76q-13 42 -42 59.5t-60 17.5q-28 0 -49 -12t-32 -26.5t-18.5 -40t-9.5 -38.5t-4 -36zM329 71q45 31 69.5 81t24.5 107q0 73 -46.5 136.5t-115.5 63.5q-50 0 -88 -44.5
t-38 -126.5q0 -92 51 -154t143 -63z" />
    <glyph glyph-name="Scaron" unicode="&#x160;" horiz-adv-x="448" 
d="M399 722v-116q-23 18 -37.5 28t-44 20.5t-60.5 10.5q-49 0 -82.5 -28.5t-33.5 -72.5q0 -26 10 -47t35 -41.5t46.5 -34.5t65.5 -39q77 -44 107.5 -90t30.5 -103q0 -94 -69 -154t-185 -60q-59 0 -129 20v159q18 -21 28.5 -31.5t30.5 -27.5t42 -24.5t46 -7.5q47 0 79.5 32
t32.5 73q0 59 -63 99l-73.5 46.5t-54.5 38t-45 38t-27.5 36.5t-19 44t-4.5 51q0 89 65 153t157 64q66 0 152 -36zM81 929h53q64 -44 98 -87q32 43 99 87h50q-55 -57 -84 -145h-131q-16 45 -34 75.5t-51 69.5z" />
    <glyph glyph-name="scaron" unicode="&#x161;" horiz-adv-x="344" 
d="M315 501v-83q-17 15 -26 21.5t-29.5 15.5t-41.5 9q-34 0 -55 -20.5t-21 -49.5q0 -28 16.5 -45t72.5 -54q46 -30 68 -62t22 -83q0 -69 -44.5 -110t-126.5 -41q-62 0 -126 19l7 135q39 -55 62 -76t53 -21q38 0 57.5 21.5t19.5 49.5q0 31 -17.5 49t-65.5 49
q-100 65 -100 151q0 53 45 100t130 47q42 0 100 -22zM56 750h35q59 -57 93 -109q35 56 94 109h36q-56 -89 -66 -171h-127q-15 92 -65 171z" />
    <glyph glyph-name="Ydieresis" unicode="&#x178;" horiz-adv-x="625" 
d="M24 748l171 2q-4 -45 33 -111l105 -185l102 181q24 41 32 64.5t7 50.5l151 -1q-14 -18 -56 -84l-180 -316v-260q0 -50 20 -89h-152q20 51 20 128v212l-168 299q-26 48 -42.5 68.5t-42.5 40.5zM193 913h110q-4 -23 -7.5 -37t-15.5 -39t-32 -51h-93q31 66 38 127zM450 913
h110q-4 -23 -7.5 -37t-15.5 -39t-32 -51h-92q33 70 37 127z" />
    <glyph glyph-name="Zcaron" unicode="&#x17d;" horiz-adv-x="573" 
d="M75 750h448l-88 -175l-235 -497q27 -3 60 -3q85 0 152.5 12t92.5 22t59 28l-54 -137h-493q175 319 337 670q-24 4 -68 4q-128 0 -259 -64zM145 929h53q64 -44 98 -87q32 43 99 87h50q-55 -57 -84 -145h-131q-16 45 -34 75.5t-51 69.5z" />
    <glyph glyph-name="zcaron" unicode="&#x17e;" horiz-adv-x="385" 
d="M130 215l102 238l-82 5q-68 4 -124 -35l27 101l310 -12q-22 -44 -28 -59l-125 -285q-9 -19 -39 -106h80q44 0 70.5 8.5t54.5 30.5l-30 -101h-329q55 79 113 215zM63 750h35q59 -57 93 -109q35 56 94 109h36q-56 -89 -66 -171h-127q-15 92 -65 171z" />
    <glyph glyph-name="florin" unicode="&#x192;" horiz-adv-x="573" 
d="M454 479l-15 -69h-114l-77 -367q-5 -25 -10 -43t-21 -51.5t-37 -54.5t-59.5 -38t-87.5 -17q-32 0 -77 12q27 65 42 113q16 -51 54 -51q62 0 83 103l31 147l52 247l-52 2q43 44 68 74l14 68q5 25 10 43t21 51.5t36.5 54.5t59 38t87.5 17q40 0 92 -12q-27 -65 -42 -113
q-10 26 -23 39t-37 13q-32 0 -56.5 -26.5t-34.5 -76.5l-21 -103h114z" />
    <glyph glyph-name="circumflex" unicode="&#x2c6;" 
d="M103 750h127q10 -82 66 -171h-36q-59 53 -94 109q-34 -52 -92 -109h-36q50 79 65 171z" />
    <glyph glyph-name="caron" unicode="&#x2c7;" 
d="M38 750h35q59 -57 93 -109q35 56 94 109h36q-56 -89 -66 -171h-127q-15 92 -65 171z" />
    <glyph glyph-name="uni02C9" unicode="&#x2c9;" 
d="M2 599v90h330v-90h-330z" />
    <glyph glyph-name="breve" unicode="&#x2d8;" 
d="M2 753h27q26 -88 136 -88q116 0 137 88h30q-4 -75 -46.5 -126.5t-119.5 -51.5q-76 0 -118 50.5t-46 127.5z" />
    <glyph glyph-name="dotaccent" unicode="&#x2d9;" 
d="M136 726h94q-7 -66 -46 -127h-81q31 73 33 127z" />
    <glyph glyph-name="ring" unicode="&#x2da;" 
d="M167 739q31 0 53.5 -22t22.5 -55q0 -31 -22.5 -53.5t-53.5 -22.5q-32 0 -54.5 22.5t-22.5 53.5q0 32 23 54.5t54 22.5zM167 704q-17 0 -29 -12t-12 -29t12 -29t29 -12q16 0 28 12t12 29t-12 29t-28 12z" />
    <glyph glyph-name="ogonek" unicode="&#x2db;" 
d="M160 9l54 -1q-38 -53 -38 -88q0 -18 8.5 -29.5t22.5 -11.5q13 0 30 14l19 -43q-34 -17 -57 -17q-35 0 -62.5 22.5t-27.5 59.5q0 43 51 94z" />
    <glyph glyph-name="tilde" unicode="&#x2dc;" 
d="M287 728h63q-2 -64 -39.5 -98t-77.5 -34q-37 0 -83 31q-32 22 -63 22q-25 0 -34.5 -15t-6.5 -37h-63q2 64 39.5 98t77.5 34q36 0 83 -31q32 -22 63 -22q25 0 34.5 15t6.5 37z" />
    <glyph glyph-name="hungarumlaut" unicode="&#x2dd;" 
d="M89 747h96q-33 -104 -116 -167h-31q44 87 51 167zM240 747h96q-33 -104 -116 -167h-31q44 87 51 167z" />
    <glyph glyph-name="uni03A9" unicode="&#x3a9;" horiz-adv-x="777" 
d="M741 156l-27 -156h-254l-8 21q3 5 30.5 56t38.5 76l30.5 72.5t27.5 91t8 86.5q-1 157 -58 231t-142 74q-90 0 -144 -74t-54 -236q0 -64 22 -136.5t42.5 -113.5t58.5 -109q7 -12 10 -18l-9 -21h-252l-25 156l27 1q17 -50 33.5 -65t49.5 -15h110q-34 29 -58.5 54t-56 67
t-48.5 95t-17 113q0 151 89.5 243t224.5 92q137 0 223 -88t86 -239q0 -54 -16 -104t-46.5 -94t-56.5 -73.5t-64 -65.5h116q34 0 48.5 14t31.5 66z" />
    <glyph glyph-name="uni03BC" unicode="&#x3bc;" horiz-adv-x="552" 
d="M367 106l-79 -85q-42 -21 -64 -21q-24 0 -37 9v-73q0 -37 28 -97l-149 1q20 46 20 122v430q0 76 -27 132h153q-11 -17 -15 -25.5t-7 -23.5t-3 -38v-288q14 -69 82 -69q46 0 98 36v285q0 76 -20 121l147 2q-26 -55 -26 -97v-304q0 -74 18 -123h-123q4 48 4 106z" />
    <glyph glyph-name="pi" unicode="&#x3c0;" horiz-adv-x="605" 
d="M548 504l27 -10q-12 -61 -38 -99q-22 -5 -72 -5q-5 -55 -5 -242q0 -96 46 -96q24 0 52 30l14 -23q-20 -34 -50.5 -53t-61.5 -19q-46 0 -71.5 30.5t-25.5 106.5q0 84 11 269q-33 0 -88 1t-74 1v-19q0 -110 -15 -198t-29 -123t-26 -49q-35 -16 -65 -19l-7 19
q53 67 76.5 177.5t23.5 212.5q-48 1 -74.5 -10t-62.5 -37l-16 25q1 1 11 13l12.5 15t13 14t16.5 15l18 12.5t22.5 12l24.5 8t30 6.5t34 2q6 0 115.5 -2t170.5 -2q25 0 37.5 7t25.5 29z" />
    <glyph glyph-name="endash" unicode="&#x2013;" horiz-adv-x="500" 
d="M17 238v116q80 -9 160 -9h168q77 0 138 9v-116q-76 10 -156 10h-134q-98 0 -176 -10z" />
    <glyph glyph-name="emdash" unicode="&#x2014;" horiz-adv-x="1000" 
d="M18 238v116q80 -9 160 -9h666q77 0 138 9v-116q-76 10 -156 10h-632q-98 0 -176 -10z" />
    <glyph glyph-name="quoteleft" unicode="&#x2018;" horiz-adv-x="240" 
d="M178 519h-156q17 105 119 231h96q-73 -98 -73 -166q0 -26 14 -65z" />
    <glyph glyph-name="quoteright" unicode="&#x2019;" horiz-adv-x="240" 
d="M81 750h156q-17 -105 -119 -231h-96q73 98 73 165q0 27 -14 66z" />
    <glyph glyph-name="quotesinglbase" unicode="&#x201a;" horiz-adv-x="240" 
d="M81 149h156q-17 -105 -119 -231h-96q73 98 73 165q0 27 -14 66z" />
    <glyph glyph-name="quotedblleft" unicode="&#x201c;" horiz-adv-x="448" 
d="M363 519h-156q17 105 119 231h96q-73 -98 -73 -166q0 -26 14 -65zM162 519h-156q17 106 120 231h95q-73 -98 -73 -166q0 -26 14 -65z" />
    <glyph glyph-name="quotedblright" unicode="&#x201d;" horiz-adv-x="448" 
d="M85 750h155q-14 -103 -119 -231h-95q73 102 73 165q0 27 -14 66zM286 750h155q-17 -107 -119 -231h-95q73 102 73 165q0 27 -14 66z" />
    <glyph glyph-name="quotedblbase" unicode="&#x201e;" horiz-adv-x="448" 
d="M85 149h155q-14 -103 -119 -231h-95q73 102 73 165q0 27 -14 66zM286 149h155q-17 -107 -119 -231h-95q73 102 73 165q0 27 -14 66z" />
    <glyph glyph-name="dagger" unicode="&#x2020;" horiz-adv-x="552" 
d="M198 750h159q-25 -77 -25 -175v-91h69q78 0 142 14v-125q-55 14 -127 14h-84v-370q-2 -94 23 -173h-157q24 82 24 210v333h-64q-93 0 -145 -14v125q75 -14 159 -14h50v67q0 128 -24 199z" />
    <glyph glyph-name="daggerdbl" unicode="&#x2021;" horiz-adv-x="552" 
d="M196 750h161q-15 -46 -20 -80t-5 -98v-62h77q75 0 133 15v-127q-59 16 -133 16h-77v-231h69q70 0 141 16v-128q-48 14 -125 14h-85v-68q0 -93 25 -173h-161q25 73 25 181v60h-75q-69 2 -135 -14v125q61 -13 121 -13h89v231h-62q-81 0 -148 -16v127q49 -11 126 -15h84v38
q0 112 -25 202z" />
    <glyph glyph-name="bullet" unicode="&#x2022;" horiz-adv-x="354" 
d="M32 350q0 60 42.5 101.5t102.5 41.5t102.5 -41.5t42.5 -101.5q0 -61 -42.5 -104t-102.5 -43q-61 0 -103 42.5t-42 104.5z" />
    <glyph glyph-name="ellipsis" unicode="&#x2026;" horiz-adv-x="1000" 
d="M167 154q32 0 56 -23.5t24 -56.5q0 -34 -23.5 -57.5t-56.5 -23.5q-34 0 -57.5 23.5t-23.5 57.5q0 33 23.5 56.5t57.5 23.5zM500 154q32 0 56 -23.5t24 -56.5q0 -34 -23.5 -57.5t-56.5 -23.5q-34 0 -57.5 23.5t-23.5 57.5q0 33 23.5 56.5t57.5 23.5zM833 154
q32 0 56 -23.5t24 -56.5q0 -34 -23.5 -57.5t-56.5 -23.5q-34 0 -57.5 23.5t-23.5 57.5q0 33 23.5 56.5t57.5 23.5z" />
    <glyph glyph-name="perthousand" unicode="&#x2030;" horiz-adv-x="1281" 
d="M639 287q-34 0 -58 -28.5t-24 -88.5q0 -50 22.5 -80t60.5 -30q29 0 48 14.5t26 38.5t8.5 37.5t1.5 27.5q0 52 -25 80.5t-60 28.5zM640 364q78 0 127 -52.5t49 -138.5q0 -83 -48 -137.5t-127 -54.5q-77 0 -126.5 55t-49.5 137q0 83 48.5 137t126.5 54zM581 755h65
l-342 -774h-66zM240 757q78 0 127.5 -52.5t49.5 -138.5q0 -83 -48 -137.5t-128 -54.5q-77 0 -126.5 55t-49.5 137q0 83 48.5 137t126.5 54zM240 680q-34 0 -58.5 -28.5t-24.5 -88.5q0 -50 22.5 -80t60.5 -30q29 0 48.5 14.5t26.5 38.5t8.5 37t1.5 28q0 52 -25 80.5t-60 28.5
zM1039 364q78 0 127.5 -52.5t49.5 -138.5q0 -83 -48 -137.5t-128 -54.5q-77 0 -126.5 55t-49.5 137q0 83 48.5 137t126.5 54zM1039 287q-34 0 -58.5 -28.5t-24.5 -88.5q0 -50 22.5 -80t60.5 -30q29 0 48.5 14.5t26.5 38.5t8.5 37.5t1.5 27.5q0 52 -25 80.5t-60 28.5z" />
    <glyph glyph-name="guilsinglleft" unicode="&#x2039;" horiz-adv-x="260" 
d="M130 509h111l-92 -213l92 -213h-111l-105 213z" />
    <glyph glyph-name="guilsinglright" unicode="&#x203a;" horiz-adv-x="260" 
d="M130 509l105 -213l-105 -213h-111l92 213l-92 213h111z" />
    <glyph glyph-name="fraction" unicode="&#x2044;" horiz-adv-x="135" 
d="M-189 -21l446 778h67l-445 -778h-68z" />
    <glyph glyph-name="Euro" unicode="&#x20ac;" horiz-adv-x="612" 
d="M511 409h-322q-3 -30 -3 -38v-24h308l-21 -72h-277q14 -90 75.5 -136t130.5 -46q43 0 81.5 15.5t55 29t41.5 36.5l-5 -123q-27 -17 -46.5 -26.5t-59 -20t-83.5 -10.5q-68 0 -123.5 25t-90.5 67.5t-56.5 89.5t-30.5 99h-63l13 72h42v12q0 9 2 27.5t2 22.5h-61l16 72h60
q31 120 119 197.5t220 77.5q66 0 131 -28v-119q-85 54 -158 54q-75 0 -130.5 -50t-76.5 -132h330z" />
    <glyph glyph-name="afii61289" unicode="&#x2113;" horiz-adv-x="442" 
d="M402 142l21 -19q-64 -122 -179 -122q-73 0 -110 43q-37 46 -37 154v85l-63 -47l-14 27l77 60v138q0 129 11 185t45 95q40 53 96 53q48 0 73.5 -40t25.5 -101q0 -87 -40.5 -161t-116.5 -151v-95q0 -102 23 -142t71 -40q63 0 117 78zM191 523v-131q45 53 72 121.5t27 137.5
q0 110 -48 110q-29 0 -40 -52t-11 -186z" />
    <glyph glyph-name="trademark" unicode="&#x2122;" horiz-adv-x="1000" 
d="M247 729v-309q0 -33 6.5 -39.5t43.5 -10.5v-22h-186v22q38 4 44.5 10.5t6.5 39.5v309h-48q-51 0 -66 -65h-22v88h356v-88h-22q-15 65 -65 65h-48zM668 347l-143 297h-2v-206q0 -38 9 -51.5t43 -16.5v-22h-132v22q33 3 42 16.5t9 51.5v241q-10 23 -29 37t-41 14v22h133
l146 -296l154 296h114v-22q-33 -1 -44 -13t-11 -38v-259q0 -33 6.5 -39.5t43.5 -10.5v-22h-185v22q37 4 43.5 10.5t6.5 39.5v225h-2l-149 -298h-12z" />
    <glyph glyph-name="Omega" unicode="&#x2126;" horiz-adv-x="777" 
d="M741 156l-27 -156h-254l-8 21q3 5 30.5 56t38.5 76l30.5 72.5t27.5 91t8 86.5q-1 157 -58 231t-142 74q-90 0 -144 -74t-54 -236q0 -64 22 -136.5t42.5 -113.5t58.5 -109q7 -12 10 -18l-9 -21h-252l-25 156l27 1q17 -50 33.5 -65t49.5 -15h110q-34 29 -58.5 54t-56 67
t-48.5 95t-17 113q0 151 89.5 243t224.5 92q137 0 223 -88t86 -239q0 -54 -16 -104t-46.5 -94t-56.5 -73.5t-64 -65.5h116q34 0 48.5 14t31.5 66z" />
    <glyph glyph-name="estimated" unicode="&#x212e;" horiz-adv-x="913" 
d="M876 368h-681q-5 0 -5 -5v-206q0 -13 9 -23q109 -112 257 -112q162 0 271 125h61q-58 -68 -145.5 -107.5t-187.5 -39.5q-174 0 -297 111t-123 267q0 157 123 267.5t297 110.5q175 0 298 -110.5t123 -267.5v-10zM722 395v207q0 13 -10 25q-110 107 -256 107
q-147 0 -256 -111q-10 -10 -10 -26v-202q0 -7 5 -7h522q5 0 5 7z" />
    <glyph glyph-name="partialdiff" unicode="&#x2202;" horiz-adv-x="568" 
d="M280 471h2q39 0 77.5 -18.5t63.5 -54.5q8 69 9 114q3 91 -27 167q-17 40 -54 68.5t-83 28.5q-72 0 -148 -62q-13 -2 -26.5 25t-6.5 45q69 44 150 44q143 0 223 -151q53 -100 53 -247q0 -160 -51 -266q-76 -163 -220 -163q-89 0 -142.5 58t-53.5 156q0 103 63 177
q30 36 75.5 57.5t95.5 21.5zM305 428h-1q-69 0 -113 -62q-48 -76 -48 -200q0 -56 27 -93t72 -37q71 0 120 111q36 79 52 206q-12 26 -42.5 50.5t-66.5 24.5z" />
    <glyph glyph-name="Delta" unicode="&#x2206;" horiz-adv-x="679" 
d="M640 0h-603v28l275 701l44 12l284 -713v-28zM518 52l-213 546l-208 -546h421z" />
    <glyph glyph-name="product" unicode="&#x220f;" horiz-adv-x="734" 
d="M704 734v-29q-67 -5 -82 -17.5t-15 -60.5v-601q0 -54 15 -68.5t80 -19.5v-29h-280v29q62 4 74.5 17t12.5 70v637q0 23 -7 29t-31 6h-211q-23 0 -29 -5.5t-6 -25.5v-641q0 -55 10.5 -68.5t68.5 -18.5v-29h-273v29q65 5 80 19t15 68v602q0 48 -15 60.5t-83 17.5v29h676z
" />
    <glyph glyph-name="summation" unicode="&#x2211;" horiz-adv-x="591" 
d="M566 109l-47 -204h-489v26l237 362l-232 413v28h484q0 -9 2.5 -36.5t5.5 -69l5 -68.5l-30 -6q-13 71 -35 109q-12 20 -33 27.5t-79 7.5h-197l195 -340l-238 -368h271q26 0 40.5 1t30 5.5t23.5 11.5t18 22.5t18 34.5t20 52z" />
    <glyph glyph-name="minus" unicode="&#x2212;" horiz-adv-x="667" 
d="M586 212h-504v82h504v-82z" />
    <glyph glyph-name="uni2215" unicode="&#x2215;" horiz-adv-x="135" 
d="M-189 -21l446 778h67l-445 -778h-68z" />
    <glyph glyph-name="uni2219" unicode="&#x2219;" horiz-adv-x="240" 
d="M121 459q33 0 56.5 -23t23.5 -57q0 -33 -23.5 -56.5t-56.5 -23.5t-56.5 23.5t-23.5 56.5q0 34 23.5 57t56.5 23z" />
    <glyph glyph-name="radical" unicode="&#x221a;" horiz-adv-x="587" 
d="M570 935l-179 -1094l-23 -12l-230 581l-92 -44l-13 35l171 80l174 -459h3l146 923z" />
    <glyph glyph-name="infinity" unicode="&#x221e;" horiz-adv-x="801" 
d="M749 303v-1q0 -76 -48 -123.5t-113 -47.5q-47 0 -90.5 27.5t-96.5 92.5q-49 -59 -92.5 -89.5t-99.5 -30.5q-65 0 -112 47.5t-47 119.5q0 74 47 122t119 48q53 0 98 -31t91 -88q3 3 8 9q31 36 50 54t55.5 37t75.5 19q68 -1 111.5 -46.5t43.5 -118.5zM216 191h2q22 0 42 8
t42.5 28.5t31.5 30l34 37.5q-23 30 -34.5 43t-32.5 33.5t-43 29t-47 8.5q-45 0 -71.5 -32t-26.5 -81q0 -44 29.5 -74.5t73.5 -30.5zM588 409h-1q-19 0 -37 -6.5t-36 -22l-28 -24.5t-29 -31t-21 -24q52 -62 84.5 -86t70.5 -24q43 0 69.5 33t26.5 74q0 50 -27.5 80.5
t-71.5 30.5z" />
    <glyph glyph-name="integral" unicode="&#x222b;" horiz-adv-x="402" 
d="M171 11l-21 432q-22 448 166 448q24 0 45 -13.5t21 -37.5q0 -23 -14.5 -36t-34.5 -13q-19 0 -32 26t-24 26q-49 0 -42 -174l20 -403q23 -477 -168 -477q-29 0 -48 15.5t-19 36.5q-1 22 16.5 37t40.5 15q16 0 29 -28t24 -28q24 0 34.5 47t6.5 127z" />
    <glyph glyph-name="approxequal" unicode="&#x2248;" horiz-adv-x="573" 
d="M488 459l41 -36q-55 -102 -137 -102q-29 0 -53.5 9.5t-64.5 32.5q-57 34 -92 34q-31 0 -54 -19.5t-45 -55.5l-42 36q24 46 63 73.5t85 27.5q12 0 24 -2t20 -4.5t20 -8l16.5 -7.5t16.5 -9t14 -8q3 -2 10.5 -6.5l10 -6t9 -5l9.5 -5t8.5 -4t9 -3.5t8.5 -3t9 -2.5t9 -1
t10 -0.5q50 0 95 76zM488 276l41 -36q-54 -102 -138 -102q-29 0 -53.5 9.5t-63.5 32.5q-57 35 -91 35q-32 0 -54 -19.5t-46 -56.5l-42 35q24 47 63 74.5t84 27.5q12 0 24.5 -2t21 -4.5t20 -7.5t16.5 -8l16 -9.5t14 -7.5l22.5 -13t24 -13t20 -7t26.5 -4q29 0 49.5 18t45.5 58
z" />
    <glyph glyph-name="notequal" unicode="&#x2260;" horiz-adv-x="573" 
d="M414 527l-43 -95h150v-63h-175l-65 -145h240v-63h-265l-53 -119l-50 22l44 97h-146v63h171l64 145h-235v63h260l53 117z" />
    <glyph glyph-name="lessequal" unicode="&#x2264;" horiz-adv-x="573" 
d="M519 106l-463 231v67l462 231v-74l-396 -188v-3l397 -190v-74zM522 1h-470v64h470v-64z" />
    <glyph glyph-name="greaterequal" unicode="&#x2265;" horiz-adv-x="573" 
d="M58 635l462 -231v-67l-462 -231v74l396 190v2l-396 189v74zM520 1h-468v64h468v-64z" />
    <glyph glyph-name="lozenge" unicode="&#x25ca;" horiz-adv-x="595" 
d="M543 353l-208 -427h-76l-208 427l210 430h74zM472 353l-172 361h-4l-173 -360l174 -362h3z" />
    </font>
</defs>
</svg>
